<svg width="500" height="389" viewBox="0 0 500 389" fill="none" xmlns="http://www.w3.org/2000/svg">
<g clip-path="url(#clip0)">
<path d="M453.127 318.834C448.427 313.834 437.553 309.551 422.988 306.716V242.276H422.322V241.61H410.296V242.276H391.401C393.094 232.525 398.742 198.529 397.604 184.875C397.604 184.875 412.285 144.833 400.273 111.462C400.273 111.462 412.299 114.13 413.622 100.782C414.699 90.0046 427.072 66.1933 412.863 52.493C409.528 48.9963 404.57 46.1054 397.41 44.1674L393.936 34.4542C396.202 30.8695 397.604 26.0314 397.604 20.6984C397.604 13.5152 395.079 7.22013 391.295 3.68636C389.116 1.37369 386.457 -0.013916 383.585 -0.013916C381.397 0.019627 379.282 0.777661 377.572 2.1415C377.821 2.33114 378.062 2.53465 378.302 2.74742C373.913 6.02679 370.902 12.8214 370.902 20.6753C370.902 26.6188 372.636 31.9426 375.379 35.6105L373.571 47.3728C373.571 47.3728 336.198 38.0434 352.22 100.782C352.22 100.782 356.226 111.462 362.9 111.462C362.9 111.462 358.894 159.514 365.569 176.869C365.569 176.869 362.9 219.584 368.242 228.927V242.276H334.866V308.372C317.78 312.285 306.832 318.293 306.832 325.023C306.832 336.822 340.301 346.383 381.586 346.383C422.872 346.383 456.337 336.841 456.337 325.037C456.337 322.882 455.208 320.8 453.127 318.834Z" fill="#F2F2F2"/>
<path d="M190.065 325.837C185.703 321.184 175.573 317.202 161.998 314.561V254.593H161.378V253.973H150.199V254.593H132.622C134.2 245.523 139.454 213.89 138.395 201.179C138.395 201.179 152.058 163.913 140.879 132.858C140.879 132.858 152.058 135.342 153.302 122.923C154.306 112.895 165.819 90.7354 152.595 77.9879C149.491 74.7502 144.88 72.0444 138.219 70.2497L134.981 61.1933C137.095 57.8538 138.395 53.358 138.395 48.3903C138.395 41.7067 136.05 35.851 132.525 32.5624C130.499 30.407 128.025 29.1396 125.351 29.1396C123.318 29.1719 121.353 29.8779 119.764 31.147C119.995 31.3228 120.226 31.5125 120.444 31.7067C116.36 34.7594 113.552 41.0823 113.552 48.3903C113.552 53.9408 115.171 58.876 117.715 62.2664L116.031 73.2099C116.031 73.2099 81.2533 64.5143 96.1423 122.9C96.1423 122.9 99.8703 132.835 106.082 132.835C106.082 132.835 102.354 177.553 108.566 193.705C108.566 193.705 106.082 233.455 111.05 242.151V254.57H80.0137V316.087C64.1164 319.727 53.9268 325.338 53.9268 331.596C53.9268 342.572 85.0738 351.485 123.492 351.485C161.91 351.485 193.053 342.586 193.053 331.596C193.053 329.602 192.003 327.664 190.065 325.837Z" fill="#F2F2F2"/>
<path d="M292.41 322.706C289.172 319.237 281.614 316.272 271.503 314.306V269.644H271.041V269.181H262.715V269.644H249.625C250.8 262.886 254.713 239.32 253.927 229.866C253.927 229.866 264.103 202.114 255.777 178.987C255.777 178.987 264.103 180.837 265.028 171.587C265.777 164.117 274.352 147.613 264.5 138.118C262.188 135.694 258.756 133.691 253.793 132.354L251.388 125.597C253.106 122.716 253.987 119.413 253.932 116.059C253.932 111.082 252.183 106.721 249.556 104.269C248.048 102.664 246.207 101.721 244.218 101.721C242.703 101.746 241.239 102.273 240.056 103.219C240.231 103.349 240.398 103.488 240.564 103.636C237.521 105.907 235.43 110.615 235.43 116.059C235.43 120.18 236.637 123.871 238.538 126.411L237.28 134.565C237.28 134.565 211.378 128.09 222.479 171.568C222.479 171.568 225.254 178.969 229.88 178.969C229.88 178.969 227.105 212.271 231.73 224.297C231.73 224.297 229.88 253.899 233.58 260.375V269.625H210.453V315.416C198.612 318.127 191.027 322.294 191.027 326.98C191.027 335.157 214.223 341.781 242.831 341.781C271.439 341.781 294.635 335.153 294.635 326.98C294.635 325.509 293.853 324.066 292.41 322.706Z" fill="#F2F2F2"/>
<path d="M481.11 330.282C479.195 328.238 474.75 326.489 468.793 325.328V299.01H468.52V298.737H463.613V299.01H455.898C456.591 295.028 458.899 281.138 458.432 275.564C458.432 275.564 464.445 259.204 459.524 245.573C459.524 245.573 464.431 246.665 464.977 241.212C465.44 236.813 470.472 227.086 464.667 221.489C463.303 220.06 461.277 218.881 458.354 218.094L456.934 214.116C457.948 212.42 458.467 210.473 458.432 208.497C458.432 205.564 457.401 202.993 455.856 201.559C455.464 201.103 454.982 200.734 454.439 200.475C453.897 200.216 453.307 200.073 452.706 200.055C451.814 200.071 450.952 200.382 450.255 200.939C450.358 201.015 450.456 201.097 450.551 201.184C448.761 202.521 447.53 205.296 447.53 208.506C447.487 210.684 448.134 212.82 449.38 214.607L448.64 219.412C448.64 219.412 433.377 215.597 439.917 241.221C439.917 241.221 441.554 245.583 444.279 245.583C444.279 245.583 442.646 265.213 445.37 272.299C445.37 272.299 444.279 289.75 446.462 293.575V299.029H432.808V326.027C425.828 327.622 421.355 330.079 421.355 332.831C421.355 337.65 435.028 341.559 451.883 341.559C468.737 341.559 482.41 337.65 482.41 332.831C482.424 331.933 481.961 331.082 481.11 330.282Z" fill="#F2F2F2"/>
<path d="M83.3301 330.282C81.4152 328.238 76.9702 326.489 71.0127 325.328V299.01H70.7399V298.737H65.8324V299.01H58.1173C58.8111 295.028 61.1191 281.138 60.652 275.564C60.652 275.564 66.6649 259.204 61.7436 245.573C61.7436 245.573 66.651 246.665 67.1968 241.212C67.6362 236.813 72.6917 227.086 66.8869 221.489C65.4993 220.06 63.4966 218.881 60.5733 218.094L59.1534 214.116C60.1675 212.42 60.6866 210.473 60.652 208.497C60.652 205.564 59.6205 202.993 58.0757 201.559C57.6839 201.103 57.2014 200.734 56.6591 200.475C56.1168 200.216 55.5265 200.073 54.9258 200.055C54.0335 200.071 53.1716 200.382 52.4744 200.939C52.5773 201.015 52.6761 201.097 52.7704 201.184C50.9804 202.521 49.75 205.296 49.75 208.506C49.7002 210.678 50.3381 212.81 51.5724 214.598L50.8324 219.403C50.8324 219.403 35.5687 215.587 42.109 241.212C42.109 241.212 43.7463 245.573 46.4707 245.573C46.4707 245.573 44.8379 265.203 47.5622 272.289C47.5622 272.289 46.4707 289.741 48.6538 293.566V299.019H35.0276V326.017C28.0479 327.613 23.5752 330.069 23.5752 332.821C23.5752 337.641 37.2477 341.549 54.1025 341.549C70.9572 341.549 84.6298 337.641 84.6298 332.821C84.6436 331.933 84.1811 331.082 83.3301 330.282Z" fill="#F2F2F2"/>
<path d="M0 332.276H500C500 332.276 481.499 382.562 434.103 364.653C386.707 346.744 358.381 368.122 332.368 377.946C306.355 387.771 254.334 395.291 241.041 380.259C227.747 365.227 215.601 358.293 168.788 364.07C121.975 369.847 91.3275 381.989 85.5319 365.805C79.7364 349.621 78.5939 344.417 45.6475 347.303C12.7012 350.19 0 332.276 0 332.276Z" fill="#9FCDB4"/>
<path d="M293.589 171.115C287.974 180.661 287.114 192.151 285.222 203.057C282.252 219.958 276.434 236.258 273.501 253.168C272.479 259.084 271.818 265.083 270.194 270.86C267.965 278.797 263.987 286.124 260.254 293.455C253.899 305.981 248.131 319.006 245.758 332.849C245.018 337.165 245.596 343.025 249.87 343.95C251.091 344.223 252.465 344.006 253.506 344.699C254.116 345.102 254.505 345.754 254.995 346.295C256.873 348.367 260.106 348.608 262.789 347.854C265.472 347.1 267.812 345.444 270.3 344.154C280.18 339.066 291.892 339.672 302.974 340.393C305.014 340.523 307.303 340.777 308.594 342.368C309.246 343.178 309.519 344.218 310.004 345.143C311.725 348.497 316.267 350.056 319.681 348.464C320.957 347.868 322.053 346.91 323.381 346.42C327.437 344.908 331.707 348.187 336.05 348.21C342.294 348.238 346.993 341.624 353.233 341.397C357.488 341.244 361.378 344.144 365.633 344.172C368.825 344.172 371.767 342.562 374.542 340.994L393.506 330.282C388.436 323.192 382.226 316.99 375.129 311.929C369.907 308.229 368.497 300.828 365.31 295.278C363.205 291.605 361.078 287.877 360.051 283.774C359.311 280.814 359.163 277.734 358.432 274.769C357.419 270.68 355.333 266.957 353.677 263.085C347.109 247.747 347.331 230.245 341.313 214.681C339.621 210.296 337.442 206.101 335.939 201.647C333.959 195.782 333.187 189.565 331.189 183.71C329.19 177.854 325.638 172.105 319.972 169.584C317.513 168.573 314.895 168.004 312.238 167.905C305.62 167.479 299.732 168.617 293.589 171.115Z" fill="#008060"/>
<path d="M318.27 93.3303H291.887V128.511H318.27V93.3303Z" fill="#FBC661"/>
<path d="M317.558 120.62C316.217 120.412 314.848 120.62 313.492 120.62C310.157 120.578 309.209 124.607 305.884 124.935C301.827 125.333 296.203 122.766 292.812 125.032C292.192 125.464 291.536 125.842 290.851 126.161C288.076 127.382 284.686 126.929 282.146 128.589C279.607 130.25 278.677 133.529 278.677 136.563C278.614 137.649 278.771 138.736 279.14 139.76C279.496 140.624 280.088 141.374 280.444 142.239C280.694 142.849 280.824 143.501 281.032 144.13C281.599 145.571 282.378 146.918 283.344 148.127L289.218 156.3C290.759 158.446 290.144 161.101 290.393 163.733C290.578 165.754 291.05 167.752 291.046 169.778C291.041 171.804 290.486 173.941 288.973 175.328C292.452 175.116 295.919 174.797 299.376 174.371C302.225 174.019 305.065 173.599 307.928 173.395C313.941 172.97 319.982 173.52 325.967 174.07C324.977 172.84 324.528 171.124 324.283 169.565C323.469 164.394 322.956 158.978 324.658 154.029C325.204 152.549 325.845 151.106 326.577 149.709L328.404 146.032C330.99 140.833 333.404 135.504 333.955 129.723C334.161 128.238 333.985 126.725 333.441 125.328C332.641 123.538 330.911 122.28 329.047 121.67C327.155 121.13 325.177 120.958 323.219 121.161C321.397 121.249 319.38 120.897 317.558 120.62Z" fill="#70B48B"/>
<path d="M298.566 118.187C298.987 119.288 299.491 120.467 299.163 121.605C298.552 123.862 295.435 124.32 294.075 126.23C293.956 126.36 293.875 126.518 293.838 126.69C293.801 126.861 293.811 127.04 293.867 127.206C293.932 127.318 294.016 127.416 294.116 127.498C296.656 129.708 300.328 129.898 303.696 129.861C308.603 129.815 313.844 129.399 317.733 126.424C318.82 125.592 319.843 124.204 319.288 122.951C318.857 121.993 317.724 121.633 316.785 121.161C314.681 120.102 313.173 118.085 312.34 115.879C311.508 113.672 311.295 111.29 311.258 108.941C311.295 108.539 311.208 108.135 311.008 107.784C310.684 107.322 310.083 107.252 309.514 107.215C306.344 107.004 303.161 107.131 300.018 107.595C299.13 107.724 297.437 107.844 296.813 108.571C296.189 109.297 296.549 110.157 296.67 110.948C297.045 113.421 297.681 115.847 298.566 118.187Z" fill="#FBB3B2"/>
<path opacity="0.05" d="M298.566 118.187C298.987 119.288 299.491 120.467 299.163 121.605C298.552 123.862 295.435 124.32 294.075 126.23C293.956 126.36 293.875 126.518 293.838 126.69C293.801 126.861 293.811 127.04 293.867 127.206C293.932 127.318 294.016 127.416 294.116 127.498C296.656 129.708 300.328 129.898 303.696 129.861C308.603 129.815 313.844 129.399 317.733 126.424C318.82 125.592 319.843 124.204 319.288 122.951C318.857 121.993 317.724 121.633 316.785 121.161C314.681 120.102 313.173 118.085 312.34 115.879C311.508 113.672 311.295 111.29 311.258 108.941C311.295 108.539 311.208 108.135 311.008 107.784C310.684 107.322 310.083 107.252 309.514 107.215C306.344 107.004 303.161 107.131 300.018 107.595C299.13 107.724 297.437 107.844 296.813 108.571C296.189 109.297 296.549 110.157 296.67 110.948C297.045 113.421 297.681 115.847 298.566 118.187Z" fill="black"/>
<path d="M304.537 113.7C311.079 113.7 316.383 108.397 316.383 101.855C316.383 95.3127 311.079 90.0093 304.537 90.0093C297.995 90.0093 292.692 95.3127 292.692 101.855C292.692 108.397 297.995 113.7 304.537 113.7Z" fill="#FBB3B2"/>
<path opacity="0.1" d="M315.832 346.438C314.895 346.85 313.998 347.349 313.154 347.928C314.199 348.587 315.388 348.982 316.619 349.079C317.851 349.175 319.087 348.971 320.222 348.483C321.119 348.062 321.924 347.465 322.784 346.98C320.416 346.239 318.09 345.597 315.832 346.438Z" fill="black"/>
<path opacity="0.1" d="M262.761 344.177C260.759 345.204 258.848 346.457 256.781 347.313C258.659 348.432 261.17 348.483 263.33 347.858C266.013 347.077 268.353 345.449 270.837 344.158C276.258 341.383 282.234 340.296 288.349 339.995C279.487 339.699 270.555 340.171 262.761 344.177Z" fill="black"/>
<path opacity="0.1" d="M375.662 311.924C370.44 308.224 369.033 300.823 365.842 295.273C363.737 291.6 361.61 287.872 360.583 283.77C359.843 280.809 359.695 277.729 358.964 274.764C357.956 270.675 355.87 266.952 354.214 263.08C347.646 247.743 347.863 230.24 341.85 214.676C340.153 210.291 337.974 206.096 336.471 201.642C334.496 195.777 333.696 189.561 331.721 183.705C329.746 177.849 326.17 172.1 320.504 169.579C318.085 168.497 315.416 168.076 312.771 167.9C310.539 167.752 308.299 167.791 306.073 168.016C308.266 168.199 310.416 168.73 312.442 169.588C318.095 172.109 321.661 177.858 323.659 183.714C325.657 189.57 326.434 195.786 328.409 201.651C329.912 206.105 332.109 210.301 333.784 214.685C339.797 230.25 339.579 247.752 346.147 263.09C347.808 266.961 349.894 270.684 350.902 274.773C351.633 277.738 351.781 280.819 352.521 283.779C353.548 287.882 355.675 291.61 357.78 295.282C360.967 300.833 362.378 308.205 367.6 311.933C374.699 316.991 380.912 323.189 385.985 330.277L367.021 340.99C365.436 341.94 363.772 342.753 362.049 343.423C363.391 343.88 364.795 344.131 366.212 344.167C369.399 344.167 372.341 342.558 375.116 340.99L394.08 330.277C388.998 323.182 382.774 316.98 375.662 311.924Z" fill="black"/>
<path opacity="0.1" d="M345.685 341.415C340.796 341.591 336.85 345.694 332.364 347.428C333.724 347.888 335.143 348.151 336.577 348.21C341.601 348.21 345.625 343.959 350.255 342.169C348.786 341.658 347.24 341.403 345.685 341.415Z" fill="black"/>
<path d="M303.821 169.639V160.902H299.579C299.806 159.593 300.564 155.019 300.412 153.182C300.412 153.182 302.387 147.798 300.773 143.312C300.988 143.364 301.213 143.366 301.429 143.318C301.646 143.27 301.848 143.173 302.022 143.035C302.195 142.897 302.334 142.72 302.429 142.52C302.523 142.319 302.571 142.1 302.567 141.878C302.743 140.083 305.259 135.597 300.412 134.339L299.917 132.951C300.252 132.393 300.423 131.752 300.412 131.101C300.412 129.616 299.607 128.409 298.617 128.409C297.627 128.409 296.823 129.616 296.823 131.101C296.805 131.818 297.016 132.523 297.424 133.113L297.179 134.713C297.179 134.713 292.156 133.455 294.311 141.892C294.311 141.892 294.848 143.326 295.745 143.326C295.745 143.326 295.208 149.801 296.106 152.114C296.106 152.114 295.745 157.854 296.462 159.112V160.907H291.975V169.792C289.663 170.319 288.206 171.129 288.206 172.035C288.206 173.622 292.706 174.908 298.256 174.908C303.807 174.908 308.307 173.622 308.307 172.035C308.307 171.032 306.527 170.153 303.821 169.639Z" fill="#F2D6AB"/>
<path opacity="0.1" d="M298.705 131.013C298.717 131.663 298.547 132.304 298.214 132.863L298.705 134.251C303.552 135.504 301.041 139.991 300.86 141.785C300.863 142.007 300.816 142.227 300.721 142.428C300.627 142.628 300.488 142.805 300.315 142.943C300.141 143.082 299.939 143.18 299.722 143.228C299.506 143.277 299.281 143.275 299.065 143.224C300.68 147.711 298.705 153.094 298.705 153.094C298.857 154.945 298.099 159.501 297.872 160.814H299.491C299.718 159.501 300.481 154.931 300.328 153.094C300.328 153.094 302.299 147.711 300.684 143.224C300.9 143.275 301.125 143.277 301.341 143.228C301.558 143.18 301.76 143.082 301.933 142.943C302.107 142.805 302.246 142.628 302.34 142.428C302.435 142.227 302.482 142.007 302.479 141.785C302.659 139.991 305.171 135.504 300.328 134.251L299.833 132.863C300.167 132.305 300.339 131.664 300.328 131.013C300.328 129.528 299.523 128.321 298.534 128.321C298.239 128.326 297.954 128.428 297.724 128.612C298.055 128.915 298.314 129.288 298.483 129.703C298.653 130.118 298.728 130.565 298.705 131.013Z" fill="black"/>
<path opacity="0.1" d="M303.733 169.547V160.814H302.119V169.547C304.82 170.065 306.605 170.934 306.605 171.938C306.605 173.45 302.535 174.685 297.354 174.801H298.164C303.714 174.801 308.215 173.515 308.215 171.929C308.219 170.943 306.429 170.065 303.733 169.547Z" fill="black"/>
<path d="M308.529 85.2221C304.829 84.2971 300.851 83.5894 297.326 85.0094C295.709 85.7262 294.221 86.7062 292.923 87.9095C291.725 88.9502 290.56 90.1019 289.921 91.5589C289.158 93.3165 289.246 95.3054 289.2 97.2203C289.153 99.1352 288.899 101.189 287.627 102.618C287.132 103.173 286.489 103.626 286.17 104.302C285.708 105.227 286.013 106.369 286.466 107.308C286.919 108.247 287.525 109.135 287.733 110.162C288.016 111.582 287.465 113.053 286.683 114.274C285.902 115.495 284.884 116.55 284.075 117.757C283.265 118.964 282.636 120.694 283.372 122.021C283.834 122.877 284.787 123.409 285.268 124.251C285.499 124.653 285.615 125.12 285.86 125.514C286.54 126.591 287.969 126.855 289.232 126.984C291.253 127.197 293.506 127.262 295.074 125.967C296.152 125.079 296.697 123.696 296.961 122.322C297.225 120.948 297.234 119.547 297.479 118.159C297.655 117.169 297.942 116.18 297.858 115.181C297.743 113.848 296.97 112.678 296.364 111.48C295.452 109.817 295.025 107.93 295.134 106.036C295.314 104.158 296.304 102.304 297.96 101.411C299.126 100.768 300.564 100.606 301.554 99.718C303.122 98.3304 302.886 95.8697 303.168 93.7929C303.206 93.3301 303.357 92.8837 303.608 92.4932C304.098 91.8271 304.995 91.6467 305.828 91.5681C307.766 91.4016 309.824 91.6097 311.448 92.6874C312.952 93.7558 313.994 95.3565 314.362 97.1648C314.718 98.9625 314.685 100.816 314.264 102.6C314.329 101.818 315.532 101.605 316.087 102.137C316.642 102.669 316.67 103.585 316.512 104.353C315.865 107.59 312.932 109.903 311.947 113.048C311.556 114.344 311.507 115.719 311.804 117.04C312.1 118.361 312.733 119.583 313.64 120.588C313.884 120.886 314.203 121.113 314.565 121.244C314.935 121.316 315.314 121.335 315.689 121.3C317.165 121.3 318.432 122.313 319.556 123.275C320.68 124.237 321.869 125.268 323.367 125.384C324.866 125.5 326.48 124.149 326.036 122.738C325.875 122.317 325.617 121.94 325.282 121.637C324.357 120.685 323.145 119.935 322.507 118.77C321.392 116.813 322.072 114.366 322.775 112.225C323.478 110.083 324.163 107.632 323.02 105.685C322.484 104.76 321.586 104.066 321.17 103.085C320.941 102.518 320.82 101.912 320.814 101.3C320.717 99.0612 321.276 96.7809 320.814 94.5977C320.538 93.5449 320.056 92.5576 319.394 91.6936C318.733 90.8295 317.905 90.106 316.961 89.5653C316.002 88.9819 314.96 88.5468 313.871 88.2749C313.45 88.1685 312.812 88.1916 312.516 87.8771C312.22 87.5626 312.118 87.0029 311.744 86.6514C310.837 85.8743 309.634 85.495 308.529 85.2221Z" fill="#FBC661"/>
<path opacity="0.05" d="M316.087 99.6485C315.886 99.4737 315.635 99.3678 315.369 99.3462C315.104 99.3245 314.838 99.3883 314.612 99.5282C314.6 100.511 314.493 101.49 314.292 102.451C314.496 101.799 315.569 101.651 316.087 102.16C316.191 102.263 316.28 102.38 316.351 102.507C316.416 102.296 316.47 102.081 316.513 101.864C316.67 101.096 316.647 100.199 316.087 99.6485Z" fill="black"/>
<path opacity="0.05" d="M320.768 98.8112C320.772 98.9952 320.786 99.179 320.809 99.3616C320.945 98.0974 320.974 96.824 320.897 95.5549C320.794 96.6371 320.751 97.7242 320.768 98.8112Z" fill="black"/>
<path opacity="0.05" d="M314.292 102.451C314.279 102.501 314.269 102.552 314.265 102.604L314.292 102.451Z" fill="black"/>
<path opacity="0.05" d="M322.003 115.037C322.181 114.095 322.429 113.168 322.743 112.262C323.302 110.569 323.839 108.677 323.474 106.994C323.302 107.936 323.058 108.864 322.743 109.769C322.183 111.443 321.637 113.344 322.003 115.037Z" fill="black"/>
<path opacity="0.05" d="M314.362 97.1693C314.443 97.531 314.505 97.897 314.547 98.2655C314.68 97.0608 314.617 95.8425 314.362 94.6577C313.996 92.8476 312.954 91.2449 311.448 90.1758C309.824 89.1027 307.747 88.8899 305.828 89.0564C305.005 89.1304 304.098 89.3108 303.608 89.9815C303.357 90.3704 303.206 90.8153 303.168 91.2766C302.886 93.358 303.122 95.8048 301.554 97.2017C300.564 98.0944 299.126 98.2563 297.96 98.8992C296.304 99.8243 295.314 101.674 295.134 103.525C295.075 104.193 295.1 104.865 295.208 105.527C295.334 104.675 295.649 103.862 296.129 103.146C296.609 102.431 297.242 101.832 297.983 101.392C299.149 100.749 300.587 100.587 301.577 99.6994C303.145 98.3118 302.909 95.8511 303.191 93.7743C303.229 93.3115 303.38 92.8651 303.631 92.4746C304.121 91.8085 305.018 91.6281 305.851 91.5495C307.789 91.383 309.847 91.5911 311.471 92.6688C312.972 93.7469 314.005 95.3561 314.362 97.1693Z" fill="black"/>
<path opacity="0.05" d="M325.569 121.984C325.292 122.292 324.949 122.535 324.567 122.695C324.185 122.855 323.772 122.928 323.358 122.909C321.883 122.794 320.666 121.762 319.547 120.8C318.427 119.838 317.155 118.844 315.68 118.825C315.305 118.858 314.926 118.839 314.556 118.77C314.195 118.636 313.876 118.41 313.631 118.113C312.605 116.989 311.933 115.588 311.698 114.084C311.508 115.25 311.584 116.443 311.918 117.575C312.253 118.707 312.838 119.749 313.631 120.624C313.875 120.923 314.194 121.149 314.556 121.281C314.926 121.353 315.305 121.372 315.68 121.337C317.155 121.337 318.423 122.35 319.547 123.312C320.671 124.274 321.859 125.305 323.358 125.421C324.857 125.537 326.471 124.186 326.027 122.775C325.929 122.483 325.773 122.214 325.569 121.984Z" fill="black"/>
<path opacity="0.05" d="M287.623 109.736C287.824 109.059 287.862 108.345 287.734 107.65C287.526 106.628 286.915 105.74 286.467 104.801C286.374 104.61 286.291 104.416 286.217 104.218C286.217 104.246 286.184 104.274 286.17 104.306C285.708 105.231 286.013 106.374 286.467 107.313C286.908 108.093 287.294 108.903 287.623 109.736Z" fill="black"/>
<path opacity="0.05" d="M297.724 114.427C297.645 114.838 297.553 115.245 297.479 115.657C297.234 117.044 297.22 118.432 296.961 119.82C296.702 121.207 296.151 122.595 295.074 123.464C293.506 124.755 291.253 124.695 289.232 124.482C287.969 124.352 286.54 124.084 285.86 123.011C285.615 122.613 285.499 122.151 285.268 121.744C284.805 120.893 283.848 120.356 283.372 119.514C283.339 119.459 283.312 119.394 283.284 119.334C283.107 119.764 283.024 120.227 283.039 120.692C283.054 121.156 283.167 121.613 283.372 122.031C283.834 122.886 284.787 123.418 285.268 124.26C285.499 124.662 285.615 125.13 285.86 125.523C286.54 126.6 287.969 126.864 289.232 126.994C291.253 127.206 293.506 127.271 295.074 125.976C296.151 125.088 296.697 123.705 296.961 122.331C297.225 120.957 297.234 119.556 297.479 118.168C297.655 117.179 297.941 116.189 297.858 115.19C297.835 114.932 297.79 114.677 297.724 114.427Z" fill="black"/>
<path d="M280.491 132.003C280.491 132.003 278.178 133.261 276.721 144.926C275.264 156.591 274.565 168.978 274.565 168.978C274.565 168.978 274.565 179.389 284.436 179.746C284.436 179.746 288.386 180.467 289.644 181.364C290.902 182.262 310.643 176.156 301.309 174.889C291.975 173.622 288.566 174.167 288.566 174.167C288.566 174.167 283.539 170.93 283.539 167.886C283.539 164.843 288.566 146.739 288.566 146.739L280.491 132.003Z" fill="#FBB3B2"/>
<path d="M280.453 141.152C280.703 141.762 280.832 142.414 281.041 143.043C281.606 144.484 282.386 145.831 283.353 147.04C284.528 148.677 286.415 152.535 287.586 154.172C288.286 151.769 289.313 149.473 290.638 147.35L280.499 130.93C280.499 130.93 279.704 131.355 278.756 134.029C278.705 134.514 278.677 135 278.672 135.476C278.609 136.562 278.766 137.649 279.135 138.673C279.505 139.537 280.097 140.287 280.453 141.152Z" fill="#70B48B"/>
<path d="M315.217 107.886C315.217 107.776 315.183 107.668 315.119 107.578C315.055 107.488 314.965 107.419 314.861 107.382V106.776C314.966 106.74 315.056 106.671 315.12 106.581C315.184 106.491 315.218 106.383 315.217 106.272C315.219 106.172 315.193 106.074 315.142 105.988C315.091 105.902 315.017 105.832 314.929 105.786C314.841 105.739 314.742 105.718 314.642 105.724C314.543 105.731 314.447 105.764 314.365 105.822C314.284 105.879 314.219 105.958 314.18 106.049C314.14 106.141 314.127 106.242 314.141 106.34C314.155 106.439 314.196 106.532 314.259 106.609C314.323 106.686 314.406 106.744 314.501 106.776V107.382C314.396 107.419 314.305 107.487 314.24 107.578C314.176 107.669 314.141 107.777 314.141 107.889C314.141 108 314.176 108.108 314.24 108.199C314.305 108.29 314.396 108.358 314.501 108.395V108.996C314.396 109.033 314.305 109.101 314.24 109.192C314.176 109.283 314.141 109.391 314.141 109.503C314.141 109.614 314.176 109.723 314.24 109.813C314.305 109.904 314.396 109.973 314.501 110.009V110.615C314.382 110.658 314.281 110.741 314.218 110.85C314.154 110.959 314.131 111.087 314.152 111.212C314.174 111.337 314.239 111.45 314.335 111.531C314.432 111.612 314.555 111.657 314.681 111.657C314.807 111.657 314.93 111.612 315.026 111.531C315.123 111.45 315.188 111.337 315.21 111.212C315.231 111.087 315.208 110.959 315.144 110.85C315.081 110.741 314.98 110.658 314.861 110.615V110.009C314.966 109.973 315.057 109.904 315.122 109.813C315.186 109.723 315.221 109.614 315.221 109.503C315.221 109.391 315.186 109.283 315.122 109.192C315.057 109.101 314.966 109.033 314.861 108.996V108.395C314.966 108.358 315.057 108.289 315.121 108.197C315.184 108.106 315.218 107.997 315.217 107.886Z" fill="#EEEFF3"/>
<path d="M332.539 124.824C335.298 129.441 337.297 134.471 338.46 139.722C340.254 148.159 341.512 149.954 341.512 149.954C341.512 149.954 349.412 170.055 340.615 171.314C331.818 172.572 316.387 171.314 316.387 171.314C316.387 171.314 285.157 176.697 296.105 169.519C307.053 162.34 315.68 163.233 315.68 163.233C315.68 163.233 328.783 162.877 330.578 161.619L333.987 161.263L325.911 138.289L332.539 124.824Z" fill="#FBB3B2"/>
<path d="M324.195 138.016L327.96 146.804C330.504 141.674 333.432 135.389 333.973 129.69C334.024 128.635 334.001 127.578 333.904 126.526C333.491 125.668 332.946 124.88 332.29 124.191L324.195 138.016Z" fill="#70B48B"/>
<path d="M201.189 239.246C201.189 239.246 192.109 258.145 198.414 264.815C204.718 271.485 208.978 238.506 208.978 238.506L201.189 239.246Z" fill="#A0616A"/>
<path d="M157.271 327.627L147.095 340.412C147.095 340.412 126.526 348.566 145.426 349.662C145.426 349.662 154.676 348.922 156.526 347.623C158.377 346.323 159.491 343.733 163.196 345.218C166.901 346.702 171.166 343.733 171.166 343.733C171.166 343.733 171.721 329.279 168.016 327.613C164.311 325.948 157.271 327.627 157.271 327.627Z" fill="#36344A"/>
<path d="M195.259 332.257L192.849 342.822C192.849 342.822 187.474 355.421 195.259 353.566C203.043 351.711 206.933 349.676 207.673 345.971C208.413 342.267 210.448 338.187 210.448 338.187C210.448 338.187 208.224 332.442 206.188 332.257C204.153 332.072 195.259 332.257 195.259 332.257Z" fill="#36344A"/>
<path d="M145.596 204.584C145.596 204.584 138.927 250.375 143.561 275.351C148.196 300.328 153.737 325.939 153.737 325.939C153.737 325.939 147.262 340.74 169.463 330.944C169.463 330.944 167.983 294.251 163.534 279.986C159.084 265.722 165.818 246.462 167.669 245.907C167.669 245.907 175.069 283.154 182.308 295.398C189.547 307.641 193.571 336.152 193.571 336.152C193.571 336.152 209.14 338.187 208.954 334.112C208.769 330.037 205.99 295.569 196.929 283.339C196.929 283.339 189.144 262.956 194.153 241.832C199.163 220.708 188.779 213.478 188.779 213.478L172.294 194.024L155.805 190.324L145.596 204.584Z" fill="#008060"/>
<path d="M194.496 125.694C194.322 126.297 194.042 126.864 193.668 127.368C193.281 127.783 192.824 128.126 192.317 128.381C190.689 129.3 188.966 130.039 187.178 130.587C186.716 131.512 187.465 132.553 188.177 133.302L190.268 135.513C191.489 136.799 192.71 138.085 194.028 139.269C196.577 141.556 199.47 143.429 202.599 144.82C204.237 145.546 206.35 146.064 207.664 144.847C208.978 143.631 208.649 141.494 209.445 139.907C209.545 139.813 209.622 139.696 209.67 139.567C209.718 139.438 209.735 139.299 209.72 139.162C209.706 139.025 209.659 138.893 209.585 138.777C209.511 138.66 209.41 138.563 209.292 138.492C208.219 137.433 208.002 135.758 208.228 134.269C208.455 132.78 209.061 131.374 209.408 129.907C209.755 128.441 209.819 126.804 209.038 125.513C208.578 124.827 207.983 124.241 207.289 123.793C205.771 122.715 204.078 121.908 202.285 121.406C201.36 121.152 200.435 120.98 199.51 120.708C198.936 120.532 197.382 119.459 196.892 119.547C195.883 119.713 194.852 124.616 194.496 125.694Z" fill="#A0616A"/>
<path opacity="0.1" d="M194.496 125.694C194.322 126.297 194.042 126.864 193.668 127.368C193.281 127.783 192.824 128.126 192.317 128.381C190.689 129.3 188.966 130.039 187.178 130.587C186.716 131.512 187.465 132.553 188.177 133.302L190.268 135.513C191.489 136.799 192.71 138.085 194.028 139.269C196.577 141.556 199.47 143.429 202.599 144.82C204.237 145.546 206.35 146.064 207.664 144.847C208.978 143.631 208.649 141.494 209.445 139.907C209.545 139.813 209.622 139.696 209.67 139.567C209.718 139.438 209.735 139.299 209.72 139.162C209.706 139.025 209.659 138.893 209.585 138.777C209.511 138.66 209.41 138.563 209.292 138.492C208.219 137.433 208.002 135.758 208.228 134.269C208.455 132.78 209.061 131.374 209.408 129.907C209.755 128.441 209.819 126.804 209.038 125.513C208.578 124.827 207.983 124.241 207.289 123.793C205.771 122.715 204.078 121.908 202.285 121.406C201.36 121.152 200.435 120.98 199.51 120.708C198.936 120.532 197.382 119.459 196.892 119.547C195.883 119.713 194.852 124.616 194.496 125.694Z" fill="black"/>
<path d="M192.419 129.02C192.396 128.654 192.354 128.229 192.044 128.03C191.864 127.93 191.658 127.887 191.452 127.905C187.077 127.905 183.529 131.346 180.777 134.741C174.977 141.887 170.402 149.954 166.439 158.266C164.001 163.386 161.739 169.144 163.307 174.598C163.803 176.215 164.541 177.748 165.495 179.144C166.809 181.14 168.405 182.936 170.231 184.477C170.917 185.137 171.767 185.6 172.692 185.819C174.08 186.041 175.398 185.278 176.582 184.542C178.959 183.062 181.326 181.567 183.682 180.056C187.507 177.604 191.332 175.111 194.704 172.068C198.076 169.024 201.004 165.389 202.664 161.161C203.372 159.366 203.844 157.461 204.639 155.722C205.851 153.044 207.808 150.68 208.501 147.822C208.83 146.457 208.858 145.046 209.209 143.682C209.487 142.595 209.968 141.568 210.199 140.472C210.43 139.376 210.375 138.159 209.676 137.262C208.501 135.773 206.216 135.995 204.357 136.378C201.933 136.878 197.613 138.108 195.305 136.642C193.33 135.379 192.558 131.166 192.419 129.02Z" fill="#EEEFF3"/>
<path d="M191.184 137.877L188.589 138.062L186.739 137.317L188.224 132.872C188.224 132.872 193.451 133.464 193.987 135.111C193.987 135.111 194.376 136.244 195.005 136.411C195.634 136.577 198.243 136.207 198.784 137.502C199.325 138.797 199.154 145.828 195.634 144.903L193.969 140.453L193.224 139.343C193.224 139.343 190.999 138.987 191.184 137.877Z" fill="#3F3D56"/>
<path d="M169.87 179.2C169.87 179.2 175.615 141.397 193.589 127.859C193.589 127.859 193.774 124.339 190.624 124.709C187.474 125.079 174.32 122.484 174.32 122.484L161.906 146.577C161.906 146.577 159.13 168.996 157.086 172.701C155.042 176.406 142.262 205.874 142.262 205.874C142.262 205.874 149.491 230.148 160.236 197.549C160.236 197.549 151.91 224.047 175.43 226.642C198.95 229.237 196.184 225.157 196.184 225.157L198.959 205.888V191.429L204.149 181.254L225.273 154.385C225.273 154.385 210.934 134.533 208.196 136.304C208.201 136.286 190.439 164.376 169.87 179.2Z" fill="#70B48B"/>
<path d="M177.1 123.978L174.325 122.493C174.325 122.493 165.8 125.643 162.835 137.877C162.835 137.877 155.611 143.062 150.809 146.957C150.809 146.957 144.334 134.931 144.334 130.833C144.334 130.833 133.585 138.062 131.175 136.207C131.175 136.207 137.65 166.041 149.894 163.816C162.137 161.591 166.744 154.366 166.744 154.366L177.1 123.978Z" fill="#70B48B"/>
<path d="M218.238 155.481L225.277 154.366C225.277 154.366 229.727 160.296 221.757 169.005L216.938 198.469C216.938 198.469 217.493 208.289 215.828 215.703C214.163 223.117 211.563 245.906 211.563 245.906C211.563 245.906 203.043 242.757 198.409 243.312L205.448 174.954L218.238 155.481Z" fill="#70B48B"/>
<path d="M143.932 132.863C143.932 132.863 140.037 109.514 133.367 118.224C126.698 126.933 134.107 138.978 134.107 138.978L143.932 132.863Z" fill="#A0616A"/>
<path d="M208.696 134.08C216.985 134.08 223.705 127.36 223.705 119.07C223.705 110.781 216.985 104.061 208.696 104.061C200.406 104.061 193.687 110.781 193.687 119.07C193.687 127.36 200.406 134.08 208.696 134.08Z" fill="#A0616A"/>
<path d="M220.694 102.877C220.351 102.45 220.042 101.997 219.769 101.522C218.867 100.199 217.456 99.334 216.069 98.5569C213.529 97.1693 210.634 95.865 207.808 96.5403C205.851 97.0028 204.191 98.3904 202.22 98.7882C200.25 99.186 197.91 98.7465 196.582 100.227C195.255 101.707 195.842 104.038 194.7 105.569C194.066 106.415 192.891 107.192 193.21 108.201C193.344 108.626 193.737 108.927 193.918 109.339C194.237 110.06 193.844 110.888 193.825 111.679C193.802 112.849 194.602 113.853 195.167 114.88C195.731 115.907 196.036 117.34 195.167 118.145C198.11 115.791 201.336 113.813 204.769 112.257C204.764 112.732 204.64 113.198 204.408 113.612C206.267 113.339 208.107 112.948 209.917 112.442L208.964 114.269L213.053 112.484C214.158 111.998 215.546 111.559 216.49 112.299C216.924 112.713 217.23 113.245 217.368 113.83C217.907 115.501 218.228 117.234 218.321 118.987C218.423 120.967 218.321 123.15 219.602 124.662C219.965 125.046 220.403 125.35 220.889 125.557C221.374 125.764 221.897 125.869 222.425 125.866C222.953 125.862 223.474 125.75 223.957 125.537C224.44 125.324 224.874 125.013 225.231 124.625C225.592 123.238 225.051 121.804 225.023 120.379C224.982 118.303 226.027 116.351 226.217 114.283C226.462 111.67 224.917 110.12 224.214 107.808C223.941 106.92 224.108 105.87 223.585 105.032C222.91 103.996 221.531 103.765 220.694 102.877Z" fill="#3F3D56"/>
<path d="M133.464 145.208L138.816 136.221L134.449 133.622C135.486 132.41 139.075 128.173 140.032 126.193C140.032 126.193 145.361 121.864 146.448 116.258C146.448 116.258 147.891 117.618 149.177 115.879C150.462 114.14 155.791 111.068 151.577 106.808L151.915 105.083C152.601 104.714 153.17 104.16 153.557 103.483C154.482 101.952 154.375 100.245 153.358 99.6161C152.34 98.987 150.772 99.7548 149.861 101.286C149.407 102.012 149.193 102.864 149.251 103.719L148.034 105.199C148.034 105.199 143.631 100.828 140.68 110.823C140.68 110.823 140.356 112.632 141.281 113.182C141.281 113.182 136.767 119.496 136.263 122.433C136.263 122.433 132.377 128.122 132.345 129.833L131.244 131.684L126.619 128.936L121.179 138.08C118.492 137.216 116.485 137.155 115.93 138.08C114.958 139.713 118.797 143.793 124.51 147.192C130.222 150.592 135.634 152.021 136.605 150.393C137.229 149.389 135.93 147.391 133.464 145.208Z" fill="#F3AB3E"/>
<path opacity="0.1" d="M151.855 102.336C151.468 103.012 150.901 103.568 150.217 103.941L149.875 105.661C154.093 109.921 148.76 112.997 147.474 114.736C147.342 114.966 147.159 115.163 146.938 115.311C146.718 115.46 146.467 115.555 146.204 115.592C145.941 115.628 145.673 115.603 145.421 115.52C145.169 115.437 144.94 115.297 144.75 115.111C143.663 120.717 138.335 125.046 138.335 125.046C137.368 127.031 133.788 131.267 132.752 132.475L134.412 133.464C135.449 132.257 139.038 128.016 139.995 126.036C139.995 126.036 145.324 121.707 146.411 116.101C146.411 116.101 147.854 117.461 149.14 115.722C150.425 113.982 155.754 110.911 151.54 106.651L151.878 104.926C152.562 104.556 153.13 104.002 153.515 103.326C154.44 101.799 154.338 100.088 153.321 99.4588C153.016 99.2841 152.661 99.2143 152.313 99.26C152.468 99.7746 152.508 100.317 152.429 100.849C152.35 101.381 152.154 101.889 151.855 102.336Z" fill="black"/>
<path opacity="0.1" d="M133.441 145.06L138.793 136.073L137.142 135.083L131.79 144.07C134.255 146.258 135.551 148.233 134.94 149.278C134.015 150.828 129.07 149.607 123.677 146.563C123.95 146.73 124.223 146.901 124.505 147.068C130.213 150.467 135.629 151.901 136.6 150.268C137.188 149.241 135.893 147.243 133.441 145.06Z" fill="black"/>
</g>
<defs>
<clipPath id="clip0">
<rect width="500" height="388.765" fill="white"/>
</clipPath>
</defs>
</svg>
