<?xml version="1.0" standalone="no"?><svg xmlns:xlink="http://www.w3.org/1999/xlink" xmlns="http://www.w3.org/2000/svg" viewBox="0 0 320 213.33333333333334" preserveAspectRatio="xMaxYMax slice"><g transform="scale(0.2620802620802621)"><rect x="0" y="0" width="1221" height="814" fill="#ffffff"/><rect x="0" y="0" width="81.4" height="81.4" fill="#ffffff"/><rect x="0" y="0" width="40.7" height="40.7" fill="#bedfd7"/><polygon points="40.7,0 40.7,40.7 0,40.7" fill="#068364"/><rect x="40.7" y="0" width="40.7" height="40.7" fill="#aad5ca"/><polygon points="40.7,0 81.4,0 40.7,40.7" fill="#fafdfc"/><rect x="0" y="40.7" width="40.7" height="40.7" fill="#12896b"/><polygon points="0,40.7 40.7,81.4 0,81.4" fill="#fffefc"/><rect x="40.7" y="40.7" width="40.7" height="40.7" fill="#ffe29e"/><polygon points="40.7,40.7 81.4,81.4 40.7,81.4" fill="#018161"/><rect x="81.4" y="0" width="81.4" height="81.4" fill="#ffffff"/><rect x="81.4" y="0" width="40.7" height="40.7" fill="#ffeec7"/><polygon points="81.4,0 122.10000000000001,0 81.4,40.7" fill="#ffefca"/><rect x="122.1" y="0" width="40.7" height="40.7" fill="#71b8a6"/><polygon points="122.1,0 162.8,0 162.8,40.7" fill="#ffe19c"/><rect x="81.4" y="40.7" width="40.7" height="40.7" fill="#5faf9b"/><polygon points="81.4,40.7 122.10000000000001,40.7 122.10000000000001,81.4" fill="#51a892"/><rect x="122.1" y="40.7" width="40.7" height="40.7" fill="#ffd063"/><polygon points="122.1,40.7 162.8,81.4 122.1,81.4" fill="#e2f0ed"/><rect x="162.8" y="0" width="81.4" height="81.4" fill="#ebf5f3"/><polygon points="162.8,0 244.20000000000002,0 244.20000000000002,81.4" fill="#fffbf1"/><rect x="244.2" y="0" width="81.4" height="81.4" fill="#f0f7f6"/><polygon points="244.2,0 325.6,0 325.6,81.4" fill="#48a48d"/><rect x="325.6" y="0" width="81.4" height="81.4" fill="#ffffff"/><rect x="325.6" y="0" width="40.7" height="40.7" fill="#57ab96"/><polygon points="325.6,0 366.3,40.7 325.6,40.7" fill="#fffefd"/><rect x="366.3" y="0" width="40.7" height="40.7" fill="#ffd36e"/><polygon points="366.3,0 407,0 407,40.7" fill="#94c9bc"/><rect x="325.6" y="40.7" width="40.7" height="40.7" fill="#ffcc57"/><polygon points="366.3,40.7 366.3,81.4 325.6,81.4" fill="#ffe19b"/><rect x="366.3" y="40.7" width="40.7" height="40.7" fill="#fff6e0"/><polygon points="366.3,40.7 407,40.7 366.3,81.4" fill="#ffe4a6"/><rect x="407" y="0" width="81.4" height="81.4" fill="#fff3d8"/><polygon points="407,0 488.4,81.4 407,81.4" fill="#ffe9b7"/><rect x="488.40000000000003" y="0" width="81.4" height="81.4" fill="#ffffff"/><rect x="488.4" y="0" width="40.7" height="40.7" fill="#bbddd5"/><polygon points="488.4,0 529.1,0 488.4,40.7" fill="#93c9bc"/><rect x="529.1" y="0" width="40.7" height="40.7" fill="#fffdf8"/><polygon points="529.1,0 569.8000000000001,0 529.1,40.7" fill="#41a088"/><rect x="488.4" y="40.7" width="40.7" height="40.7" fill="#ffedc3"/><polygon points="488.4,40.7 529.1,40.7 488.4,81.4" fill="#fff6e1"/><rect x="529.1" y="40.7" width="40.7" height="40.7" fill="#ffdf95"/><polygon points="529.1,40.7 569.8000000000001,40.7 529.1,81.4" fill="#fffbf2"/><rect x="569.8000000000001" y="0" width="81.4" height="81.4" fill="#ffffff"/><rect x="569.8" y="0" width="40.7" height="40.7" fill="#59ad98"/><polygon points="569.8,0 610.5,0 610.5,40.7" fill="#fff0cc"/><rect x="610.5" y="0" width="40.7" height="40.7" fill="#c5e2db"/><polygon points="610.5,0 651.2,40.7 610.5,40.7" fill="#6ab5a2"/><rect x="569.8" y="40.7" width="40.7" height="40.7" fill="#ffd575"/><polygon points="569.8,40.7 610.5,40.7 610.5,81.4" fill="#168b6d"/><rect x="610.5" y="40.7" width="40.7" height="40.7" fill="#ffeec6"/><polygon points="610.5,40.7 651.2,81.4 610.5,81.4" fill="#65b29f"/><rect x="651.2" y="0" width="81.4" height="81.4" fill="#ffffff"/><rect x="651.2" y="0" width="40.7" height="40.7" fill="#94cabc"/><polygon points="691.9000000000001,0 691.9000000000001,40.7 651.2,40.7" fill="#e1f0ec"/><rect x="691.9" y="0" width="40.7" height="40.7" fill="#259377"/><polygon points="691.9,0 732.6,40.7 691.9,40.7" fill="#5aad98"/><rect x="651.2" y="40.7" width="40.7" height="40.7" fill="#6db6a4"/><polygon points="651.2,40.7 691.9000000000001,81.4 651.2,81.4" fill="#0e8769"/><rect x="691.9" y="40.7" width="40.7" height="40.7" fill="#ffd981"/><polygon points="732.6,40.7 732.6,81.4 691.9,81.4" fill="#fff5dd"/><rect x="732.6" y="0" width="81.4" height="81.4" fill="#ffffff"/><rect x="732.6" y="0" width="40.7" height="40.7" fill="#339980"/><polygon points="732.6,0 773.3000000000001,40.7 732.6,40.7" fill="#ffefca"/><rect x="773.3" y="0" width="40.7" height="40.7" fill="#ffe8b3"/><polygon points="773.3,0 814,0 773.3,40.7" fill="#369b82"/><rect x="732.6" y="40.7" width="40.7" height="40.7" fill="#6bb5a2"/><polygon points="732.6,40.7 773.3000000000001,40.7 773.3000000000001,81.4" fill="#62b19d"/><rect x="773.3" y="40.7" width="40.7" height="40.7" fill="#018060"/><polygon points="814,40.7 814,81.4 773.3,81.4" fill="#a0d0c4"/><rect x="814" y="0" width="81.4" height="81.4" fill="#ffffff"/><rect x="814" y="0" width="40.7" height="40.7" fill="#3c9e85"/><polygon points="854.7,0 854.7,40.7 814,40.7" fill="#ffd574"/><rect x="854.7" y="0" width="40.7" height="40.7" fill="#fffcf6"/><polygon points="895.4000000000001,0 895.4000000000001,40.7 854.7,40.7" fill="#68b4a1"/><rect x="814" y="40.7" width="40.7" height="40.7" fill="#ffefcb"/><polygon points="814,40.7 854.7,81.4 814,81.4" fill="#5dae9a"/><rect x="854.7" y="40.7" width="40.7" height="40.7" fill="#ffcf5e"/><polygon points="854.7,40.7 895.4000000000001,81.4 854.7,81.4" fill="#8dc6b8"/><rect x="895.4000000000001" y="0" width="81.4" height="81.4" fill="#ffffff"/><rect x="895.4" y="0" width="40.7" height="40.7" fill="#ffda83"/><polygon points="895.4,0 936.1,0 936.1,40.7" fill="#ffe29e"/><rect x="936.1" y="0" width="40.7" height="40.7" fill="#feffff"/><polygon points="976.8000000000001,0 976.8000000000001,40.7 936.1,40.7" fill="#ffd980"/><rect x="895.4" y="40.7" width="40.7" height="40.7" fill="#d9ece7"/><polygon points="936.1,40.7 936.1,81.4 895.4,81.4" fill="#6ab5a2"/><rect x="936.1" y="40.7" width="40.7" height="40.7" fill="#ffe8b2"/><polygon points="936.1,40.7 976.8000000000001,40.7 976.8000000000001,81.4" fill="#fff5df"/><rect x="976.8" y="0" width="81.4" height="81.4" fill="#d2e8e3"/><polygon points="976.8,0 1058.2,81.4 976.8,81.4" fill="#ffd575"/><rect x="1058.2" y="0" width="81.4" height="81.4" fill="#ffebbc"/><polygon points="1139.6000000000001,0 1139.6000000000001,81.4 1058.2,81.4" fill="#ffeaba"/><rect x="1139.6000000000001" y="0" width="81.4" height="81.4" fill="#ffffff"/><rect x="1139.6" y="0" width="40.7" height="40.7" fill="#97cbbe"/><polygon points="1180.3,0 1180.3,40.7 1139.6,40.7" fill="#5dae9a"/><rect x="1180.3" y="0" width="40.7" height="40.7" fill="#1e8f73"/><polygon points="1180.3,0 1221,40.7 1180.3,40.7" fill="#ffdf93"/><rect x="1139.6" y="40.7" width="40.7" height="40.7" fill="#dfefeb"/><polygon points="1139.6,40.7 1180.3,40.7 1139.6,81.4" fill="#ffeec7"/><rect x="1180.3" y="40.7" width="40.7" height="40.7" fill="#fff5dd"/><polygon points="1221,40.7 1221,81.4 1180.3,81.4" fill="#86c3b3"/><rect x="0" y="81.4" width="81.4" height="81.4" fill="#ffcb53"/><polygon points="0,81.4 81.4,81.4 0,162.8" fill="#5eaf9b"/><rect x="81.4" y="81.4" width="81.4" height="81.4" fill="#ffffff"/><rect x="81.4" y="81.4" width="40.7" height="40.7" fill="#9dcec2"/><polygon points="81.4,81.4 122.10000000000001,122.10000000000001 81.4,122.10000000000001" fill="#178b6e"/><rect x="122.1" y="81.4" width="40.7" height="40.7" fill="#ffce5e"/><polygon points="122.1,81.4 162.8,81.4 162.8,122.10000000000001" fill="#ffdc8a"/><rect x="81.4" y="122.1" width="40.7" height="40.7" fill="#ffecbe"/><polygon points="81.4,122.1 122.10000000000001,122.1 122.10000000000001,162.8" fill="#fff5dd"/><rect x="122.1" y="122.1" width="40.7" height="40.7" fill="#fcfdfd"/><polygon points="162.8,122.1 162.8,162.8 122.1,162.8" fill="#c0e0d8"/><rect x="162.8" y="81.4" width="81.4" height="81.4" fill="#ffffff"/><rect x="162.8" y="81.4" width="40.7" height="40.7" fill="#3b9d85"/><polygon points="203.5,81.4 203.5,122.10000000000001 162.8,122.10000000000001" fill="#fcfdfd"/><rect x="203.5" y="81.4" width="40.7" height="40.7" fill="#fff3d7"/><polygon points="203.5,81.4 244.2,81.4 203.5,122.10000000000001" fill="#baddd4"/><rect x="162.8" y="122.1" width="40.7" height="40.7" fill="#ffedc5"/><polygon points="162.8,122.1 203.5,162.8 162.8,162.8" fill="#3f9f87"/><rect x="203.5" y="122.1" width="40.7" height="40.7" fill="#e4f2ee"/><polygon points="203.5,122.1 244.2,122.1 203.5,162.8" fill="#399c84"/><rect x="244.20000000000002" y="81.4" width="81.4" height="81.4" fill="#ffffff"/><rect x="244.2" y="81.4" width="40.7" height="40.7" fill="#ffeab8"/><polygon points="244.2,81.4 284.9,81.4 284.9,122.10000000000001" fill="#fff0cd"/><rect x="284.9" y="81.4" width="40.7" height="40.7" fill="#ffe2a0"/><polygon points="284.9,81.4 325.59999999999997,81.4 284.9,122.10000000000001" fill="#57ab96"/><rect x="244.2" y="122.1" width="40.7" height="40.7" fill="#4aa58e"/><polygon points="284.9,122.1 284.9,162.8 244.2,162.8" fill="#fffefb"/><rect x="284.9" y="122.1" width="40.7" height="40.7" fill="#3b9d85"/><polygon points="284.9,122.1 325.59999999999997,122.1 325.59999999999997,162.8" fill="#ffd87d"/><rect x="325.6" y="81.4" width="81.4" height="81.4" fill="#fffaed"/><polygon points="325.6,81.4 407,162.8 325.6,162.8" fill="#7cbead"/><rect x="407" y="81.4" width="81.4" height="81.4" fill="#ffffff"/><rect x="407" y="81.4" width="40.7" height="40.7" fill="#ffe4a4"/><polygon points="407,81.4 447.7,122.10000000000001 407,122.10000000000001" fill="#7fbfaf"/><rect x="447.7" y="81.4" width="40.7" height="40.7" fill="#d4eae4"/><polygon points="447.7,81.4 488.4,81.4 447.7,122.10000000000001" fill="#2c967b"/><rect x="407" y="122.1" width="40.7" height="40.7" fill="#068364"/><polygon points="407,122.1 447.7,122.1 407,162.8" fill="#349a80"/><rect x="447.7" y="122.1" width="40.7" height="40.7" fill="#ffd063"/><polygon points="488.4,122.1 488.4,162.8 447.7,162.8" fill="#ffe4a6"/><rect x="488.4" y="81.4" width="81.4" height="81.4" fill="#ffdc8a"/><polygon points="488.4,81.4 569.8,81.4 569.8,162.8" fill="#fff6e2"/><rect x="569.8" y="81.4" width="81.4" height="81.4" fill="#fff2d5"/><polygon points="569.8,81.4 651.1999999999999,81.4 569.8,162.8" fill="#44a28a"/><rect x="651.2" y="81.4" width="81.4" height="81.4" fill="#ffe098"/><polygon points="651.2,81.4 732.6,81.4 732.6,162.8" fill="#0d8668"/><rect x="732.6" y="81.4" width="81.4" height="81.4" fill="#ffffff"/><rect x="732.6" y="81.4" width="40.7" height="40.7" fill="#8bc5b7"/><polygon points="732.6,81.4 773.3000000000001,81.4 773.3000000000001,122.10000000000001" fill="#178c6e"/><rect x="773.3" y="81.4" width="40.7" height="40.7" fill="#ffecc1"/><polygon points="773.3,81.4 814,81.4 773.3,122.10000000000001" fill="#bcded5"/><rect x="732.6" y="122.1" width="40.7" height="40.7" fill="#55ab95"/><polygon points="732.6,122.1 773.3000000000001,162.8 732.6,162.8" fill="#ffefc9"/><rect x="773.3" y="122.1" width="40.7" height="40.7" fill="#c2e0d9"/><polygon points="773.3,122.1 814,122.1 814,162.8" fill="#ffd166"/><rect x="814" y="81.4" width="81.4" height="81.4" fill="#ffffff"/><rect x="814" y="81.4" width="40.7" height="40.7" fill="#148a6d"/><polygon points="814,81.4 854.7,122.10000000000001 814,122.10000000000001" fill="#e7f3f0"/><rect x="854.7" y="81.4" width="40.7" height="40.7" fill="#91c8ba"/><polygon points="854.7,81.4 895.4000000000001,81.4 854.7,122.10000000000001" fill="#65b29f"/><rect x="814" y="122.1" width="40.7" height="40.7" fill="#fcfdfd"/><polygon points="814,122.1 854.7,162.8 814,162.8" fill="#4ca68f"/><rect x="854.7" y="122.1" width="40.7" height="40.7" fill="#209074"/><polygon points="854.7,122.1 895.4000000000001,122.1 895.4000000000001,162.8" fill="#57ab96"/><rect x="895.4000000000001" y="81.4" width="81.4" height="81.4" fill="#ffffff"/><rect x="895.4" y="81.4" width="40.7" height="40.7" fill="#ffe6ac"/><polygon points="895.4,81.4 936.1,81.4 936.1,122.10000000000001" fill="#bbddd4"/><rect x="936.1" y="81.4" width="40.7" height="40.7" fill="#ffd36c"/><polygon points="936.1,81.4 976.8000000000001,81.4 976.8000000000001,122.10000000000001" fill="#ffeec6"/><rect x="895.4" y="122.1" width="40.7" height="40.7" fill="#58ac97"/><polygon points="895.4,122.1 936.1,122.1 936.1,162.8" fill="#ffefca"/><rect x="936.1" y="122.1" width="40.7" height="40.7" fill="#1b8d71"/><polygon points="976.8000000000001,122.1 976.8000000000001,162.8 936.1,162.8" fill="#e2f1ed"/><rect x="976.8" y="81.4" width="81.4" height="81.4" fill="#deefeb"/><polygon points="1058.2,81.4 1058.2,162.8 976.8,162.8" fill="#fff9ea"/><rect x="1058.2" y="81.4" width="81.4" height="81.4" fill="#fff1cf"/><polygon points="1058.2,81.4 1139.6000000000001,162.8 1058.2,162.8" fill="#ffeec5"/><rect x="1139.6" y="81.4" width="81.4" height="81.4" fill="#c7e3dc"/><polygon points="1139.6,81.4 1221,81.4 1221,162.8" fill="#ffd472"/><rect x="0" y="162.8" width="81.4" height="81.4" fill="#ffffff"/><rect x="0" y="162.8" width="40.7" height="40.7" fill="#92c9bb"/><polygon points="0,162.8 40.7,162.8 40.7,203.5" fill="#fffbf1"/><rect x="40.7" y="162.8" width="40.7" height="40.7" fill="#89c4b6"/><polygon points="81.4,162.8 81.4,203.5 40.7,203.5" fill="#ffe9b5"/><rect x="0" y="203.5" width="40.7" height="40.7" fill="#ffe4a4"/><polygon points="40.7,203.5 40.7,244.2 0,244.2" fill="#a5d2c7"/><rect x="40.7" y="203.5" width="40.7" height="40.7" fill="#fff8e9"/><polygon points="81.4,203.5 81.4,244.2 40.7,244.2" fill="#ffe5a8"/><rect x="81.4" y="162.8" width="81.4" height="81.4" fill="#ffffff"/><rect x="81.4" y="162.8" width="40.7" height="40.7" fill="#ffe3a1"/><polygon points="122.10000000000001,162.8 122.10000000000001,203.5 81.4,203.5" fill="#fff7e4"/><rect x="122.1" y="162.8" width="40.7" height="40.7" fill="#ffe29e"/><polygon points="122.1,162.8 162.8,162.8 162.8,203.5" fill="#ffe8b4"/><rect x="81.4" y="203.5" width="40.7" height="40.7" fill="#ffe4a5"/><polygon points="81.4,203.5 122.10000000000001,244.2 81.4,244.2" fill="#fff0ce"/><rect x="122.1" y="203.5" width="40.7" height="40.7" fill="#7dbeae"/><polygon points="122.1,203.5 162.8,203.5 122.1,244.2" fill="#ffd269"/><rect x="162.8" y="162.8" width="81.4" height="81.4" fill="#ffffff"/><rect x="162.8" y="162.8" width="40.7" height="40.7" fill="#ffd471"/><polygon points="162.8,162.8 203.5,162.8 203.5,203.5" fill="#f7fbfa"/><rect x="203.5" y="162.8" width="40.7" height="40.7" fill="#acd6cb"/><polygon points="203.5,162.8 244.2,162.8 244.2,203.5" fill="#148a6d"/><rect x="162.8" y="203.5" width="40.7" height="40.7" fill="#cce5df"/><polygon points="162.8,203.5 203.5,203.5 203.5,244.2" fill="#eff7f5"/><rect x="203.5" y="203.5" width="40.7" height="40.7" fill="#fff3d7"/><polygon points="203.5,203.5 244.2,203.5 203.5,244.2" fill="#acd6cb"/><rect x="244.20000000000002" y="162.8" width="81.4" height="81.4" fill="#ffffff"/><rect x="244.2" y="162.8" width="40.7" height="40.7" fill="#55aa95"/><polygon points="284.9,162.8 284.9,203.5 244.2,203.5" fill="#b1d8cf"/><rect x="284.9" y="162.8" width="40.7" height="40.7" fill="#fff6e0"/><polygon points="325.59999999999997,162.8 325.59999999999997,203.5 284.9,203.5" fill="#a4d2c6"/><rect x="244.2" y="203.5" width="40.7" height="40.7" fill="#80c0b0"/><polygon points="244.2,203.5 284.9,244.2 244.2,244.2" fill="#ffd470"/><rect x="284.9" y="203.5" width="40.7" height="40.7" fill="#ffdb87"/><polygon points="325.59999999999997,203.5 325.59999999999997,244.2 284.9,244.2" fill="#ffe099"/><rect x="325.6" y="162.8" width="81.4" height="81.4" fill="#ffffff"/><rect x="325.6" y="162.8" width="40.7" height="40.7" fill="#5eaf9a"/><polygon points="325.6,162.8 366.3,203.5 325.6,203.5" fill="#048262"/><rect x="366.3" y="162.8" width="40.7" height="40.7" fill="#eff7f5"/><polygon points="366.3,162.8 407,203.5 366.3,203.5" fill="#ecf6f3"/><rect x="325.6" y="203.5" width="40.7" height="40.7" fill="#a2d1c5"/><polygon points="325.6,203.5 366.3,203.5 366.3,244.2" fill="#ffd87c"/><rect x="366.3" y="203.5" width="40.7" height="40.7" fill="#ffd064"/><polygon points="366.3,203.5 407,244.2 366.3,244.2" fill="#ffde91"/><rect x="407" y="162.8" width="81.4" height="81.4" fill="#a8d3c8"/><polygon points="407,162.8 488.4,162.8 488.4,244.20000000000002" fill="#56ab96"/><rect x="488.4" y="162.8" width="81.4" height="81.4" fill="#b8dcd3"/><polygon points="488.4,162.8 569.8,162.8 569.8,244.20000000000002" fill="#fffcf5"/><rect x="569.8" y="162.8" width="81.4" height="81.4" fill="#30987e"/><polygon points="569.8,162.8 651.1999999999999,244.20000000000002 569.8,244.20000000000002" fill="#72b9a7"/><rect x="651.2" y="162.8" width="81.4" height="81.4" fill="#6bb5a3"/><polygon points="651.2,162.8 732.6,162.8 732.6,244.20000000000002" fill="#ffe098"/><rect x="732.6" y="162.8" width="81.4" height="81.4" fill="#ffffff"/><rect x="732.6" y="162.8" width="40.7" height="40.7" fill="#ffe9b7"/><polygon points="732.6,162.8 773.3000000000001,162.8 732.6,203.5" fill="#f0f8f6"/><rect x="773.3" y="162.8" width="40.7" height="40.7" fill="#ffca50"/><polygon points="814,162.8 814,203.5 773.3,203.5" fill="#5dae9a"/><rect x="732.6" y="203.5" width="40.7" height="40.7" fill="#69b4a2"/><polygon points="732.6,203.5 773.3000000000001,203.5 773.3000000000001,244.2" fill="#62b19d"/><rect x="773.3" y="203.5" width="40.7" height="40.7" fill="#e5f2ef"/><polygon points="814,203.5 814,244.2 773.3,244.2" fill="#ffebbb"/><rect x="814" y="162.8" width="81.4" height="81.4" fill="#ffffff"/><rect x="814" y="162.8" width="40.7" height="40.7" fill="#ffebbb"/><polygon points="814,162.8 854.7,162.8 814,203.5" fill="#b6dbd2"/><rect x="854.7" y="162.8" width="40.7" height="40.7" fill="#7fbfaf"/><polygon points="854.7,162.8 895.4000000000001,203.5 854.7,203.5" fill="#fffdf9"/><rect x="814" y="203.5" width="40.7" height="40.7" fill="#97cbbe"/><polygon points="854.7,203.5 854.7,244.2 814,244.2" fill="#ffd77c"/><rect x="854.7" y="203.5" width="40.7" height="40.7" fill="#7abdac"/><polygon points="895.4000000000001,203.5 895.4000000000001,244.2 854.7,244.2" fill="#6fb7a5"/><rect x="895.4000000000001" y="162.8" width="81.4" height="81.4" fill="#ffffff"/><rect x="895.4" y="162.8" width="40.7" height="40.7" fill="#fff5de"/><polygon points="895.4,162.8 936.1,203.5 895.4,203.5" fill="#ffd981"/><rect x="936.1" y="162.8" width="40.7" height="40.7" fill="#ffdd8f"/><polygon points="976.8000000000001,162.8 976.8000000000001,203.5 936.1,203.5" fill="#ffdc89"/><rect x="895.4" y="203.5" width="40.7" height="40.7" fill="#85c2b3"/><polygon points="895.4,203.5 936.1,203.5 936.1,244.2" fill="#6cb6a3"/><rect x="936.1" y="203.5" width="40.7" height="40.7" fill="#4ba58f"/><polygon points="976.8000000000001,203.5 976.8000000000001,244.2 936.1,244.2" fill="#ffdf95"/><rect x="976.8" y="162.8" width="81.4" height="81.4" fill="#5dae9a"/><polygon points="1058.2,162.8 1058.2,244.20000000000002 976.8,244.20000000000002" fill="#138a6c"/><rect x="1058.2" y="162.8" width="81.4" height="81.4" fill="#ffffff"/><rect x="1058.2" y="162.8" width="40.7" height="40.7" fill="#9fcfc3"/><polygon points="1058.2,162.8 1098.9,162.8 1058.2,203.5" fill="#56ab96"/><rect x="1098.9" y="162.8" width="40.7" height="40.7" fill="#ffd981"/><polygon points="1139.6000000000001,162.8 1139.6000000000001,203.5 1098.9,203.5" fill="#ffd268"/><rect x="1058.2" y="203.5" width="40.7" height="40.7" fill="#9dcec2"/><polygon points="1058.2,203.5 1098.9,203.5 1058.2,244.2" fill="#d5eae5"/><rect x="1098.9" y="203.5" width="40.7" height="40.7" fill="#1c8e71"/><polygon points="1098.9,203.5 1139.6000000000001,244.2 1098.9,244.2" fill="#6ab5a2"/><rect x="1139.6" y="162.8" width="81.4" height="81.4" fill="#cbe5df"/><polygon points="1139.6,162.8 1221,244.20000000000002 1139.6,244.20000000000002" fill="#fff1cf"/><rect x="0" y="244.2" width="81.4" height="81.4" fill="#c5e2db"/><polygon points="81.4,244.2 81.4,325.6 0,325.6" fill="#d2e8e3"/><rect x="81.4" y="244.2" width="81.4" height="81.4" fill="#ffd26a"/><polygon points="81.4,244.2 162.8,325.6 81.4,325.6" fill="#4ba58f"/><rect x="162.8" y="244.20000000000002" width="81.4" height="81.4" fill="#ffffff"/><rect x="162.8" y="244.2" width="40.7" height="40.7" fill="#fffdf9"/><polygon points="203.5,244.2 203.5,284.9 162.8,284.9" fill="#ffd26a"/><rect x="203.5" y="244.2" width="40.7" height="40.7" fill="#cee7e1"/><polygon points="203.5,244.2 244.2,284.9 203.5,284.9" fill="#ffdb88"/><rect x="162.8" y="284.9" width="40.7" height="40.7" fill="#41a088"/><polygon points="162.8,284.9 203.5,325.59999999999997 162.8,325.59999999999997" fill="#ffefcb"/><rect x="203.5" y="284.9" width="40.7" height="40.7" fill="#12896b"/><polygon points="203.5,284.9 244.2,284.9 244.2,325.59999999999997" fill="#fff2d4"/><rect x="244.20000000000002" y="244.20000000000002" width="81.4" height="81.4" fill="#ffffff"/><rect x="244.2" y="244.2" width="40.7" height="40.7" fill="#ffd36c"/><polygon points="284.9,244.2 284.9,284.9 244.2,284.9" fill="#ffd46f"/><rect x="284.9" y="244.2" width="40.7" height="40.7" fill="#2e977d"/><polygon points="284.9,244.2 325.59999999999997,244.2 284.9,284.9" fill="#ffebbc"/><rect x="244.2" y="284.9" width="40.7" height="40.7" fill="#018161"/><polygon points="244.2,284.9 284.9,325.59999999999997 244.2,325.59999999999997" fill="#ffd677"/><rect x="284.9" y="284.9" width="40.7" height="40.7" fill="#7dbeae"/><polygon points="284.9,284.9 325.59999999999997,325.59999999999997 284.9,325.59999999999997" fill="#fff0ce"/><rect x="325.6" y="244.2" width="81.4" height="81.4" fill="#5cae99"/><polygon points="325.6,244.2 407,244.2 407,325.6" fill="#1b8d71"/><rect x="407" y="244.20000000000002" width="81.4" height="81.4" fill="#ffffff"/><rect x="407" y="244.2" width="40.7" height="40.7" fill="#51a892"/><polygon points="407,244.2 447.7,244.2 407,284.9" fill="#fff6e2"/><rect x="447.7" y="244.2" width="40.7" height="40.7" fill="#ffecc2"/><polygon points="447.7,244.2 488.4,244.2 447.7,284.9" fill="#ffd982"/><rect x="407" y="284.9" width="40.7" height="40.7" fill="#fffaef"/><polygon points="407,284.9 447.7,284.9 407,325.59999999999997" fill="#79bcab"/><rect x="447.7" y="284.9" width="40.7" height="40.7" fill="#fffffe"/><polygon points="488.4,284.9 488.4,325.59999999999997 447.7,325.59999999999997" fill="#46a38c"/><rect x="488.40000000000003" y="244.20000000000002" width="81.4" height="81.4" fill="#ffffff"/><rect x="488.4" y="244.2" width="40.7" height="40.7" fill="#ffdd8e"/><polygon points="488.4,244.2 529.1,244.2 488.4,284.9" fill="#4ea790"/><rect x="529.1" y="244.2" width="40.7" height="40.7" fill="#cee7e0"/><polygon points="529.1,244.2 569.8000000000001,284.9 529.1,284.9" fill="#ffe6ac"/><rect x="488.4" y="284.9" width="40.7" height="40.7" fill="#44a28a"/><polygon points="488.4,284.9 529.1,284.9 488.4,325.59999999999997" fill="#d4e9e4"/><rect x="529.1" y="284.9" width="40.7" height="40.7" fill="#5cae99"/><polygon points="529.1,284.9 569.8000000000001,284.9 569.8000000000001,325.59999999999997" fill="#6db6a4"/><rect x="569.8" y="244.2" width="81.4" height="81.4" fill="#83c1b1"/><polygon points="569.8,244.2 651.1999999999999,244.2 651.1999999999999,325.6" fill="#ffe6ab"/><rect x="651.2" y="244.20000000000002" width="81.4" height="81.4" fill="#ffffff"/><rect x="651.2" y="244.2" width="40.7" height="40.7" fill="#c1e0d9"/><polygon points="691.9000000000001,244.2 691.9000000000001,284.9 651.2,284.9" fill="#ffcd59"/><rect x="691.9" y="244.2" width="40.7" height="40.7" fill="#a1d0c4"/><polygon points="691.9,244.2 732.6,284.9 691.9,284.9" fill="#d1e8e2"/><rect x="651.2" y="284.9" width="40.7" height="40.7" fill="#ffdc8a"/><polygon points="651.2,284.9 691.9000000000001,284.9 651.2,325.59999999999997" fill="#3b9e85"/><rect x="691.9" y="284.9" width="40.7" height="40.7" fill="#ffe4a6"/><polygon points="691.9,284.9 732.6,325.59999999999997 691.9,325.59999999999997" fill="#ffd981"/><rect x="732.6" y="244.20000000000002" width="81.4" height="81.4" fill="#ffffff"/><rect x="732.6" y="244.2" width="40.7" height="40.7" fill="#a0d0c4"/><polygon points="732.6,244.2 773.3000000000001,244.2 773.3000000000001,284.9" fill="#e0f0ec"/><rect x="773.3" y="244.2" width="40.7" height="40.7" fill="#ffefc8"/><polygon points="773.3,244.2 814,244.2 773.3,284.9" fill="#3e9f86"/><rect x="732.6" y="284.9" width="40.7" height="40.7" fill="#53a994"/><polygon points="732.6,284.9 773.3000000000001,284.9 773.3000000000001,325.59999999999997" fill="#379b82"/><rect x="773.3" y="284.9" width="40.7" height="40.7" fill="#fff8e9"/><polygon points="773.3,284.9 814,284.9 773.3,325.59999999999997" fill="#65b29f"/><rect x="814" y="244.20000000000002" width="81.4" height="81.4" fill="#ffffff"/><rect x="814" y="244.2" width="40.7" height="40.7" fill="#83c1b2"/><polygon points="814,244.2 854.7,244.2 854.7,284.9" fill="#ffd676"/><rect x="854.7" y="244.2" width="40.7" height="40.7" fill="#ffcb51"/><polygon points="854.7,244.2 895.4000000000001,244.2 854.7,284.9" fill="#ffd36c"/><rect x="814" y="284.9" width="40.7" height="40.7" fill="#41a088"/><polygon points="814,284.9 854.7,284.9 814,325.59999999999997" fill="#ffd26b"/><rect x="854.7" y="284.9" width="40.7" height="40.7" fill="#fffffe"/><polygon points="854.7,284.9 895.4000000000001,284.9 854.7,325.59999999999997" fill="#ffd87d"/><rect x="895.4000000000001" y="244.20000000000002" width="81.4" height="81.4" fill="#ffffff"/><rect x="895.4" y="244.2" width="40.7" height="40.7" fill="#80c0b0"/><polygon points="895.4,244.2 936.1,284.9 895.4,284.9" fill="#fff5df"/><rect x="936.1" y="244.2" width="40.7" height="40.7" fill="#b2d9cf"/><polygon points="936.1,244.2 976.8000000000001,244.2 976.8000000000001,284.9" fill="#1f9073"/><rect x="895.4" y="284.9" width="40.7" height="40.7" fill="#048262"/><polygon points="895.4,284.9 936.1,284.9 936.1,325.59999999999997" fill="#88c4b5"/><rect x="936.1" y="284.9" width="40.7" height="40.7" fill="#fff6e0"/><polygon points="936.1,284.9 976.8000000000001,284.9 976.8000000000001,325.59999999999997" fill="#ffe8b2"/><rect x="976.8" y="244.2" width="81.4" height="81.4" fill="#ffeab8"/><polygon points="976.8,244.2 1058.2,244.2 976.8,325.6" fill="#ffe099"/><rect x="1058.2" y="244.2" width="81.4" height="81.4" fill="#fff2d4"/><polygon points="1058.2,244.2 1139.6000000000001,244.2 1139.6000000000001,325.6" fill="#ffdf93"/><rect x="1139.6" y="244.2" width="81.4" height="81.4" fill="#ffebbe"/><polygon points="1139.6,244.2 1221,244.2 1139.6,325.6" fill="#fffcf4"/><rect x="0" y="325.6" width="81.4" height="81.4" fill="#ffe5a9"/><polygon points="0,325.6 81.4,407 0,407" fill="#f6fbfa"/><rect x="81.4" y="325.6" width="81.4" height="81.4" fill="#ffffff"/><rect x="81.4" y="325.6" width="40.7" height="40.7" fill="#5aad98"/><polygon points="81.4,325.6 122.10000000000001,366.3 81.4,366.3" fill="#fff6e0"/><rect x="122.1" y="325.6" width="40.7" height="40.7" fill="#2d967c"/><polygon points="122.1,325.6 162.8,366.3 122.1,366.3" fill="#a6d3c7"/><rect x="81.4" y="366.3" width="40.7" height="40.7" fill="#209074"/><polygon points="81.4,366.3 122.10000000000001,366.3 81.4,407" fill="#fff8e7"/><rect x="122.1" y="366.3" width="40.7" height="40.7" fill="#2f977d"/><polygon points="122.1,366.3 162.8,366.3 122.1,407" fill="#ffe2a0"/><rect x="162.8" y="325.6" width="81.4" height="81.4" fill="#ffffff"/><rect x="162.8" y="325.6" width="40.7" height="40.7" fill="#8ec7b8"/><polygon points="203.5,325.6 203.5,366.3 162.8,366.3" fill="#c4e2da"/><rect x="203.5" y="325.6" width="40.7" height="40.7" fill="#dceee9"/><polygon points="244.2,325.6 244.2,366.3 203.5,366.3" fill="#8ac5b6"/><rect x="162.8" y="366.3" width="40.7" height="40.7" fill="#42a189"/><polygon points="162.8,366.3 203.5,366.3 203.5,407" fill="#a5d2c7"/><rect x="203.5" y="366.3" width="40.7" height="40.7" fill="#a0d0c4"/><polygon points="244.2,366.3 244.2,407 203.5,407" fill="#ffe4a6"/><rect x="244.2" y="325.6" width="81.4" height="81.4" fill="#148a6d"/><polygon points="244.2,325.6 325.6,407 244.2,407" fill="#fffbf2"/><rect x="325.6" y="325.6" width="81.4" height="81.4" fill="#ffffff"/><rect x="325.6" y="325.6" width="40.7" height="40.7" fill="#76bba9"/><polygon points="366.3,325.6 366.3,366.3 325.6,366.3" fill="#85c2b3"/><rect x="366.3" y="325.6" width="40.7" height="40.7" fill="#ffd77c"/><polygon points="366.3,325.6 407,325.6 366.3,366.3" fill="#b7dbd2"/><rect x="325.6" y="366.3" width="40.7" height="40.7" fill="#ffde92"/><polygon points="366.3,366.3 366.3,407 325.6,407" fill="#91c8ba"/><rect x="366.3" y="366.3" width="40.7" height="40.7" fill="#ffd471"/><polygon points="366.3,366.3 407,366.3 407,407" fill="#ffe3a3"/><rect x="407" y="325.6" width="81.4" height="81.4" fill="#ffffff"/><rect x="407" y="325.6" width="40.7" height="40.7" fill="#ffca50"/><polygon points="407,325.6 447.7,325.6 407,366.3" fill="#4aa58e"/><rect x="447.7" y="325.6" width="40.7" height="40.7" fill="#c2e1d9"/><polygon points="488.4,325.6 488.4,366.3 447.7,366.3" fill="#dbede8"/><rect x="407" y="366.3" width="40.7" height="40.7" fill="#ffe9b7"/><polygon points="407,366.3 447.7,366.3 407,407" fill="#a9d4ca"/><rect x="447.7" y="366.3" width="40.7" height="40.7" fill="#c5e2db"/><polygon points="488.4,366.3 488.4,407 447.7,407" fill="#72b9a7"/><rect x="488.40000000000003" y="325.6" width="81.4" height="81.4" fill="#ffffff"/><rect x="488.4" y="325.6" width="40.7" height="40.7" fill="#77bbaa"/><polygon points="529.1,325.6 529.1,366.3 488.4,366.3" fill="#ffe7b1"/><rect x="529.1" y="325.6" width="40.7" height="40.7" fill="#fff4dc"/><polygon points="529.1,325.6 569.8000000000001,325.6 569.8000000000001,366.3" fill="#ffca51"/><rect x="488.4" y="366.3" width="40.7" height="40.7" fill="#69b4a2"/><polygon points="488.4,366.3 529.1,366.3 529.1,407" fill="#87c3b4"/><rect x="529.1" y="366.3" width="40.7" height="40.7" fill="#1d8f72"/><polygon points="569.8000000000001,366.3 569.8000000000001,407 529.1,407" fill="#f8fcfb"/><rect x="569.8" y="325.6" width="81.4" height="81.4" fill="#ffd77a"/><polygon points="569.8,325.6 651.1999999999999,325.6 651.1999999999999,407" fill="#f2f9f7"/><rect x="651.2" y="325.6" width="81.4" height="81.4" fill="#f3f9f8"/><polygon points="651.2,325.6 732.6,325.6 651.2,407" fill="#baddd4"/><rect x="732.6" y="325.6" width="81.4" height="81.4" fill="#ffffff"/><rect x="732.6" y="325.6" width="40.7" height="40.7" fill="#fffdf9"/><polygon points="773.3000000000001,325.6 773.3000000000001,366.3 732.6,366.3" fill="#138a6c"/><rect x="773.3" y="325.6" width="40.7" height="40.7" fill="#84c2b3"/><polygon points="773.3,325.6 814,325.6 814,366.3" fill="#ffd36d"/><rect x="732.6" y="366.3" width="40.7" height="40.7" fill="#e7f3f0"/><polygon points="773.3000000000001,366.3 773.3000000000001,407 732.6,407" fill="#fff6e2"/><rect x="773.3" y="366.3" width="40.7" height="40.7" fill="#b8dcd3"/><polygon points="773.3,366.3 814,407 773.3,407" fill="#ebf5f2"/><rect x="814" y="325.6" width="81.4" height="81.4" fill="#ffffff"/><rect x="814" y="325.6" width="40.7" height="40.7" fill="#ffe8b2"/><polygon points="814,325.6 854.7,325.6 814,366.3" fill="#fffefd"/><rect x="854.7" y="325.6" width="40.7" height="40.7" fill="#63b19e"/><polygon points="854.7,325.6 895.4000000000001,325.6 854.7,366.3" fill="#fff8e9"/><rect x="814" y="366.3" width="40.7" height="40.7" fill="#259377"/><polygon points="814,366.3 854.7,366.3 814,407" fill="#e5f2ef"/><rect x="854.7" y="366.3" width="40.7" height="40.7" fill="#ffcd5a"/><polygon points="895.4000000000001,366.3 895.4000000000001,407 854.7,407" fill="#399c83"/><rect x="895.4000000000001" y="325.6" width="81.4" height="81.4" fill="#ffffff"/><rect x="895.4" y="325.6" width="40.7" height="40.7" fill="#3d9e86"/><polygon points="895.4,325.6 936.1,366.3 895.4,366.3" fill="#ffcf60"/><rect x="936.1" y="325.6" width="40.7" height="40.7" fill="#fff8e7"/><polygon points="976.8000000000001,325.6 976.8000000000001,366.3 936.1,366.3" fill="#ffe6ab"/><rect x="895.4" y="366.3" width="40.7" height="40.7" fill="#ffd269"/><polygon points="895.4,366.3 936.1,366.3 936.1,407" fill="#ffe6ad"/><rect x="936.1" y="366.3" width="40.7" height="40.7" fill="#ffe098"/><polygon points="976.8000000000001,366.3 976.8000000000001,407 936.1,407" fill="#6ab5a2"/><rect x="976.8" y="325.6" width="81.4" height="81.4" fill="#188c6f"/><polygon points="976.8,325.6 1058.2,325.6 1058.2,407" fill="#7dbeae"/><rect x="1058.2" y="325.6" width="81.4" height="81.4" fill="#ffffff"/><rect x="1058.2" y="325.6" width="40.7" height="40.7" fill="#ffd678"/><polygon points="1058.2,325.6 1098.9,325.6 1058.2,366.3" fill="#ffdc8a"/><rect x="1098.9" y="325.6" width="40.7" height="40.7" fill="#ffcd5a"/><polygon points="1098.9,325.6 1139.6000000000001,325.6 1139.6000000000001,366.3" fill="#8bc5b7"/><rect x="1058.2" y="366.3" width="40.7" height="40.7" fill="#ffe7af"/><polygon points="1058.2,366.3 1098.9,366.3 1058.2,407" fill="#ffd167"/><rect x="1098.9" y="366.3" width="40.7" height="40.7" fill="#ffe096"/><polygon points="1139.6000000000001,366.3 1139.6000000000001,407 1098.9,407" fill="#ffeec7"/><rect x="1139.6" y="325.6" width="81.4" height="81.4" fill="#dbede9"/><polygon points="1139.6,325.6 1221,325.6 1221,407" fill="#65b29f"/><rect x="0" y="407" width="81.4" height="81.4" fill="#ffffff"/><rect x="0" y="407" width="40.7" height="40.7" fill="#58ac97"/><polygon points="0,407 40.7,407 40.7,447.7" fill="#fff8e9"/><rect x="40.7" y="407" width="40.7" height="40.7" fill="#b7dbd2"/><polygon points="40.7,407 81.4,447.7 40.7,447.7" fill="#7cbeae"/><rect x="0" y="447.7" width="40.7" height="40.7" fill="#fffaed"/><polygon points="0,447.7 40.7,447.7 40.7,488.4" fill="#51a892"/><rect x="40.7" y="447.7" width="40.7" height="40.7" fill="#ffe4a7"/><polygon points="81.4,447.7 81.4,488.4 40.7,488.4" fill="#fafdfc"/><rect x="81.4" y="407" width="81.4" height="81.4" fill="#43a18a"/><polygon points="81.4,407 162.8,407 162.8,488.4" fill="#13896c"/><rect x="162.8" y="407" width="81.4" height="81.4" fill="#58ac97"/><polygon points="162.8,407 244.20000000000002,488.4 162.8,488.4" fill="#239176"/><rect x="244.20000000000002" y="407" width="81.4" height="81.4" fill="#ffffff"/><rect x="244.2" y="407" width="40.7" height="40.7" fill="#3c9e86"/><polygon points="244.2,407 284.9,407 244.2,447.7" fill="#ffd36e"/><rect x="284.9" y="407" width="40.7" height="40.7" fill="#ffe098"/><polygon points="325.59999999999997,407 325.59999999999997,447.7 284.9,447.7" fill="#ffd36f"/><rect x="244.2" y="447.7" width="40.7" height="40.7" fill="#ffce5b"/><polygon points="284.9,447.7 284.9,488.4 244.2,488.4" fill="#fff5dd"/><rect x="284.9" y="447.7" width="40.7" height="40.7" fill="#9bcdc1"/><polygon points="284.9,447.7 325.59999999999997,447.7 325.59999999999997,488.4" fill="#f9fcfb"/><rect x="325.6" y="407" width="81.4" height="81.4" fill="#cae4de"/><polygon points="325.6,407 407,407 407,488.4" fill="#10886a"/><rect x="407" y="407" width="81.4" height="81.4" fill="#ffe9b5"/><polygon points="488.4,407 488.4,488.4 407,488.4" fill="#299479"/><rect x="488.40000000000003" y="407" width="81.4" height="81.4" fill="#ffffff"/><rect x="488.4" y="407" width="40.7" height="40.7" fill="#ffdf94"/><polygon points="529.1,407 529.1,447.7 488.4,447.7" fill="#ffe6ab"/><rect x="529.1" y="407" width="40.7" height="40.7" fill="#daede8"/><polygon points="529.1,407 569.8000000000001,447.7 529.1,447.7" fill="#ffe6ad"/><rect x="488.4" y="447.7" width="40.7" height="40.7" fill="#fffaee"/><polygon points="488.4,447.7 529.1,488.4 488.4,488.4" fill="#fff6e0"/><rect x="529.1" y="447.7" width="40.7" height="40.7" fill="#ffd26b"/><polygon points="529.1,447.7 569.8000000000001,447.7 569.8000000000001,488.4" fill="#1a8d70"/><rect x="569.8" y="407" width="81.4" height="81.4" fill="#c1e0d8"/><polygon points="569.8,407 651.1999999999999,407 569.8,488.4" fill="#ffdc8c"/><rect x="651.2" y="407" width="81.4" height="81.4" fill="#96cbbe"/><polygon points="651.2,407 732.6,407 651.2,488.4" fill="#ffda83"/><rect x="732.6" y="407" width="81.4" height="81.4" fill="#1a8d70"/><polygon points="732.6,407 814,407 732.6,488.4" fill="#ffedc3"/><rect x="814" y="407" width="81.4" height="81.4" fill="#c4e2da"/><polygon points="895.4,407 895.4,488.4 814,488.4" fill="#f6faf9"/><rect x="895.4000000000001" y="407" width="81.4" height="81.4" fill="#ffffff"/><rect x="895.4" y="407" width="40.7" height="40.7" fill="#fff0cd"/><polygon points="936.1,407 936.1,447.7 895.4,447.7" fill="#76bbaa"/><rect x="936.1" y="407" width="40.7" height="40.7" fill="#fff0ce"/><polygon points="936.1,407 976.8000000000001,407 976.8000000000001,447.7" fill="#f8fbfa"/><rect x="895.4" y="447.7" width="40.7" height="40.7" fill="#f6faf9"/><polygon points="936.1,447.7 936.1,488.4 895.4,488.4" fill="#ffe098"/><rect x="936.1" y="447.7" width="40.7" height="40.7" fill="#ffedc3"/><polygon points="976.8000000000001,447.7 976.8000000000001,488.4 936.1,488.4" fill="#e1f0ec"/><rect x="976.8000000000001" y="407" width="81.4" height="81.4" fill="#ffffff"/><rect x="976.8" y="407" width="40.7" height="40.7" fill="#ffe3a1"/><polygon points="976.8,407 1017.5,407 976.8,447.7" fill="#ffefc8"/><rect x="1017.5" y="407" width="40.7" height="40.7" fill="#fff7e5"/><polygon points="1017.5,407 1058.2,407 1017.5,447.7" fill="#d9ece7"/><rect x="976.8" y="447.7" width="40.7" height="40.7" fill="#299479"/><polygon points="976.8,447.7 1017.5,447.7 976.8,488.4" fill="#d7ebe6"/><rect x="1017.5" y="447.7" width="40.7" height="40.7" fill="#ffedc5"/><polygon points="1017.5,447.7 1058.2,488.4 1017.5,488.4" fill="#ffcc57"/><rect x="1058.2" y="407" width="81.4" height="81.4" fill="#ffffff"/><rect x="1058.2" y="407" width="40.7" height="40.7" fill="#ffe5a8"/><polygon points="1058.2,407 1098.9,407 1098.9,447.7" fill="#ffda84"/><rect x="1098.9" y="407" width="40.7" height="40.7" fill="#ffdb89"/><polygon points="1098.9,407 1139.6000000000001,407 1098.9,447.7" fill="#ffe9b4"/><rect x="1058.2" y="447.7" width="40.7" height="40.7" fill="#018161"/><polygon points="1058.2,447.7 1098.9,447.7 1098.9,488.4" fill="#209074"/><rect x="1098.9" y="447.7" width="40.7" height="40.7" fill="#ffdd8d"/><polygon points="1098.9,447.7 1139.6000000000001,488.4 1098.9,488.4" fill="#ffe2a0"/><rect x="1139.6" y="407" width="81.4" height="81.4" fill="#038162"/><polygon points="1139.6,407 1221,407 1139.6,488.4" fill="#89c4b5"/><rect x="0" y="488.4" width="81.4" height="81.4" fill="#44a28b"/><polygon points="0,488.4 81.4,488.4 81.4,569.8" fill="#c0e0d8"/><rect x="81.4" y="488.40000000000003" width="81.4" height="81.4" fill="#ffffff"/><rect x="81.4" y="488.4" width="40.7" height="40.7" fill="#ffe5aa"/><polygon points="81.4,488.4 122.10000000000001,488.4 81.4,529.1" fill="#86c3b4"/><rect x="122.1" y="488.4" width="40.7" height="40.7" fill="#038262"/><polygon points="122.1,488.4 162.8,488.4 162.8,529.1" fill="#ffe4a7"/><rect x="81.4" y="529.1" width="40.7" height="40.7" fill="#fffcf4"/><polygon points="122.10000000000001,529.1 122.10000000000001,569.8000000000001 81.4,569.8000000000001" fill="#fff4db"/><rect x="122.1" y="529.1" width="40.7" height="40.7" fill="#ffdf96"/><polygon points="122.1,529.1 162.8,529.1 162.8,569.8000000000001" fill="#ffcf5f"/><rect x="162.8" y="488.4" width="81.4" height="81.4" fill="#2a957a"/><polygon points="162.8,488.4 244.20000000000002,488.4 162.8,569.8" fill="#fffdf7"/><rect x="244.20000000000002" y="488.40000000000003" width="81.4" height="81.4" fill="#ffffff"/><rect x="244.2" y="488.4" width="40.7" height="40.7" fill="#fcfefd"/><polygon points="244.2,488.4 284.9,488.4 244.2,529.1" fill="#fff1d0"/><rect x="284.9" y="488.4" width="40.7" height="40.7" fill="#aed7cc"/><polygon points="325.59999999999997,488.4 325.59999999999997,529.1 284.9,529.1" fill="#fff8e7"/><rect x="244.2" y="529.1" width="40.7" height="40.7" fill="#98ccbf"/><polygon points="244.2,529.1 284.9,569.8000000000001 244.2,569.8000000000001" fill="#ffe3a2"/><rect x="284.9" y="529.1" width="40.7" height="40.7" fill="#ffdd8f"/><polygon points="284.9,529.1 325.59999999999997,529.1 325.59999999999997,569.8000000000001" fill="#7ebfae"/><rect x="325.6" y="488.4" width="81.4" height="81.4" fill="#f9fcfb"/><polygon points="325.6,488.4 407,488.4 325.6,569.8" fill="#5aad98"/><rect x="407" y="488.4" width="81.4" height="81.4" fill="#ffe9b5"/><polygon points="407,488.4 488.4,569.8 407,569.8" fill="#ffd168"/><rect x="488.40000000000003" y="488.40000000000003" width="81.4" height="81.4" fill="#ffffff"/><rect x="488.4" y="488.4" width="40.7" height="40.7" fill="#5eaf9b"/><polygon points="488.4,488.4 529.1,529.1 488.4,529.1" fill="#4fa791"/><rect x="529.1" y="488.4" width="40.7" height="40.7" fill="#9dcec2"/><polygon points="529.1,488.4 569.8000000000001,488.4 569.8000000000001,529.1" fill="#6eb7a4"/><rect x="488.4" y="529.1" width="40.7" height="40.7" fill="#f1f8f6"/><polygon points="488.4,529.1 529.1,569.8000000000001 488.4,569.8000000000001" fill="#74baa8"/><rect x="529.1" y="529.1" width="40.7" height="40.7" fill="#72b9a7"/><polygon points="529.1,529.1 569.8000000000001,529.1 529.1,569.8000000000001" fill="#ffd675"/><rect x="569.8000000000001" y="488.40000000000003" width="81.4" height="81.4" fill="#ffffff"/><rect x="569.8" y="488.4" width="40.7" height="40.7" fill="#0c8668"/><polygon points="610.5,488.4 610.5,529.1 569.8,529.1" fill="#ffffff"/><rect x="610.5" y="488.4" width="40.7" height="40.7" fill="#95cabd"/><polygon points="610.5,488.4 651.2,529.1 610.5,529.1" fill="#fff0cc"/><rect x="569.8" y="529.1" width="40.7" height="40.7" fill="#e4f1ee"/><polygon points="569.8,529.1 610.5,569.8000000000001 569.8,569.8000000000001" fill="#fff8e7"/><rect x="610.5" y="529.1" width="40.7" height="40.7" fill="#ffda83"/><polygon points="610.5,529.1 651.2,529.1 651.2,569.8000000000001" fill="#ffe4a7"/><rect x="651.2" y="488.40000000000003" width="81.4" height="81.4" fill="#ffffff"/><rect x="651.2" y="488.4" width="40.7" height="40.7" fill="#daede8"/><polygon points="651.2,488.4 691.9000000000001,529.1 651.2,529.1" fill="#ffd064"/><rect x="691.9" y="488.4" width="40.7" height="40.7" fill="#ffd062"/><polygon points="732.6,488.4 732.6,529.1 691.9,529.1" fill="#ffe5aa"/><rect x="651.2" y="529.1" width="40.7" height="40.7" fill="#fbfdfc"/><polygon points="691.9000000000001,529.1 691.9000000000001,569.8000000000001 651.2,569.8000000000001" fill="#c6e3dc"/><rect x="691.9" y="529.1" width="40.7" height="40.7" fill="#fff0ce"/><polygon points="732.6,529.1 732.6,569.8000000000001 691.9,569.8000000000001" fill="#fbfdfd"/><rect x="732.6" y="488.40000000000003" width="81.4" height="81.4" fill="#ffffff"/><rect x="732.6" y="488.4" width="40.7" height="40.7" fill="#6fb7a5"/><polygon points="732.6,488.4 773.3000000000001,529.1 732.6,529.1" fill="#90c8ba"/><rect x="773.3" y="488.4" width="40.7" height="40.7" fill="#d6ebe6"/><polygon points="773.3,488.4 814,529.1 773.3,529.1" fill="#ffd77a"/><rect x="732.6" y="529.1" width="40.7" height="40.7" fill="#ffd77b"/><polygon points="732.6,529.1 773.3000000000001,529.1 773.3000000000001,569.8000000000001" fill="#219175"/><rect x="773.3" y="529.1" width="40.7" height="40.7" fill="#10886a"/><polygon points="773.3,529.1 814,529.1 773.3,569.8000000000001" fill="#ffd268"/><rect x="814" y="488.40000000000003" width="81.4" height="81.4" fill="#ffffff"/><rect x="814" y="488.4" width="40.7" height="40.7" fill="#ffd46f"/><polygon points="814,488.4 854.7,529.1 814,529.1" fill="#fefffe"/><rect x="854.7" y="488.4" width="40.7" height="40.7" fill="#55aa95"/><polygon points="854.7,488.4 895.4000000000001,488.4 895.4000000000001,529.1" fill="#fff6e1"/><rect x="814" y="529.1" width="40.7" height="40.7" fill="#fffdf7"/><polygon points="814,529.1 854.7,529.1 854.7,569.8000000000001" fill="#0c8668"/><rect x="854.7" y="529.1" width="40.7" height="40.7" fill="#e5f2ef"/><polygon points="854.7,529.1 895.4000000000001,529.1 895.4000000000001,569.8000000000001" fill="#fff9eb"/><rect x="895.4" y="488.4" width="81.4" height="81.4" fill="#65b29f"/><polygon points="895.4,488.4 976.8,569.8 895.4,569.8" fill="#1b8d71"/><rect x="976.8000000000001" y="488.40000000000003" width="81.4" height="81.4" fill="#ffffff"/><rect x="976.8" y="488.4" width="40.7" height="40.7" fill="#fff0cd"/><polygon points="976.8,488.4 1017.5,529.1 976.8,529.1" fill="#ffcb51"/><rect x="1017.5" y="488.4" width="40.7" height="40.7" fill="#52a993"/><polygon points="1017.5,488.4 1058.2,488.4 1017.5,529.1" fill="#8ec7b9"/><rect x="976.8" y="529.1" width="40.7" height="40.7" fill="#ffeec6"/><polygon points="976.8,529.1 1017.5,529.1 1017.5,569.8000000000001" fill="#8ec7b9"/><rect x="1017.5" y="529.1" width="40.7" height="40.7" fill="#ffcc57"/><polygon points="1058.2,529.1 1058.2,569.8000000000001 1017.5,569.8000000000001" fill="#ffde91"/><rect x="1058.2" y="488.4" width="81.4" height="81.4" fill="#ffde92"/><polygon points="1139.6000000000001,488.4 1139.6000000000001,569.8 1058.2,569.8" fill="#ffd165"/><rect x="1139.6000000000001" y="488.40000000000003" width="81.4" height="81.4" fill="#ffffff"/><rect x="1139.6" y="488.4" width="40.7" height="40.7" fill="#fff4db"/><polygon points="1139.6,488.4 1180.3,529.1 1139.6,529.1" fill="#2b957b"/><rect x="1180.3" y="488.4" width="40.7" height="40.7" fill="#30987e"/><polygon points="1180.3,488.4 1221,529.1 1180.3,529.1" fill="#ffd87f"/><rect x="1139.6" y="529.1" width="40.7" height="40.7" fill="#ffe6ad"/><polygon points="1180.3,529.1 1180.3,569.8000000000001 1139.6,569.8000000000001" fill="#ffe4a7"/><rect x="1180.3" y="529.1" width="40.7" height="40.7" fill="#ffe4a6"/><polygon points="1221,529.1 1221,569.8000000000001 1180.3,569.8000000000001" fill="#c6e2db"/><rect x="0" y="569.8000000000001" width="81.4" height="81.4" fill="#ffffff"/><rect x="0" y="569.8" width="40.7" height="40.7" fill="#ffdb86"/><polygon points="40.7,569.8 40.7,610.5 0,610.5" fill="#0b8667"/><rect x="40.7" y="569.8" width="40.7" height="40.7" fill="#ffefcb"/><polygon points="40.7,569.8 81.4,569.8 40.7,610.5" fill="#098566"/><rect x="0" y="610.5" width="40.7" height="40.7" fill="#72b9a7"/><polygon points="0,610.5 40.7,610.5 0,651.2" fill="#088465"/><rect x="40.7" y="610.5" width="40.7" height="40.7" fill="#ffe6ac"/><polygon points="81.4,610.5 81.4,651.2 40.7,651.2" fill="#3c9e85"/><rect x="81.4" y="569.8" width="81.4" height="81.4" fill="#e5f2ef"/><polygon points="81.4,569.8 162.8,651.1999999999999 81.4,651.1999999999999" fill="#ffd87e"/><rect x="162.8" y="569.8000000000001" width="81.4" height="81.4" fill="#ffffff"/><rect x="162.8" y="569.8" width="40.7" height="40.7" fill="#d7ebe6"/><polygon points="203.5,569.8 203.5,610.5 162.8,610.5" fill="#ffca50"/><rect x="203.5" y="569.8" width="40.7" height="40.7" fill="#fff3d8"/><polygon points="244.2,569.8 244.2,610.5 203.5,610.5" fill="#ffd677"/><rect x="162.8" y="610.5" width="40.7" height="40.7" fill="#ffebbb"/><polygon points="162.8,610.5 203.5,610.5 203.5,651.2" fill="#ffe3a2"/><rect x="203.5" y="610.5" width="40.7" height="40.7" fill="#42a189"/><polygon points="203.5,610.5 244.2,610.5 203.5,651.2" fill="#f6fbfa"/><rect x="244.2" y="569.8" width="81.4" height="81.4" fill="#ffce5b"/><polygon points="244.2,569.8 325.6,569.8 244.2,651.1999999999999" fill="#ffecc0"/><rect x="325.6" y="569.8000000000001" width="81.4" height="81.4" fill="#ffffff"/><rect x="325.6" y="569.8" width="40.7" height="40.7" fill="#cfe7e1"/><polygon points="325.6,569.8 366.3,610.5 325.6,610.5" fill="#ffe5a9"/><rect x="366.3" y="569.8" width="40.7" height="40.7" fill="#ffe3a1"/><polygon points="366.3,569.8 407,610.5 366.3,610.5" fill="#ffe4a6"/><rect x="325.6" y="610.5" width="40.7" height="40.7" fill="#259277"/><polygon points="325.6,610.5 366.3,610.5 366.3,651.2" fill="#ffd26b"/><rect x="366.3" y="610.5" width="40.7" height="40.7" fill="#9ccec1"/><polygon points="366.3,610.5 407,610.5 407,651.2" fill="#9ccec1"/><rect x="407" y="569.8" width="81.4" height="81.4" fill="#b0d7ce"/><polygon points="488.4,569.8 488.4,651.1999999999999 407,651.1999999999999" fill="#fff0ce"/><rect x="488.4" y="569.8" width="81.4" height="81.4" fill="#ffcd5a"/><polygon points="488.4,569.8 569.8,569.8 569.8,651.1999999999999" fill="#fff7e5"/><rect x="569.8" y="569.8" width="81.4" height="81.4" fill="#fff0cd"/><polygon points="569.8,569.8 651.1999999999999,569.8 569.8,651.1999999999999" fill="#ffffff"/><rect x="651.2" y="569.8000000000001" width="81.4" height="81.4" fill="#ffffff"/><rect x="651.2" y="569.8" width="40.7" height="40.7" fill="#fffbf0"/><polygon points="651.2,569.8 691.9000000000001,569.8 651.2,610.5" fill="#ffe9b6"/><rect x="691.9" y="569.8" width="40.7" height="40.7" fill="#ffebbc"/><polygon points="732.6,569.8 732.6,610.5 691.9,610.5" fill="#fffcf4"/><rect x="651.2" y="610.5" width="40.7" height="40.7" fill="#ffeec6"/><polygon points="651.2,610.5 691.9000000000001,610.5 691.9000000000001,651.2" fill="#349a81"/><rect x="691.9" y="610.5" width="40.7" height="40.7" fill="#fff0ce"/><polygon points="691.9,610.5 732.6,610.5 732.6,651.2" fill="#fff0ce"/><rect x="732.6" y="569.8" width="81.4" height="81.4" fill="#fffefb"/><polygon points="814,569.8 814,651.1999999999999 732.6,651.1999999999999" fill="#ffda85"/><rect x="814" y="569.8" width="81.4" height="81.4" fill="#d3e9e3"/><polygon points="814,569.8 895.4,569.8 814,651.1999999999999" fill="#ffcb54"/><rect x="895.4000000000001" y="569.8000000000001" width="81.4" height="81.4" fill="#ffffff"/><rect x="895.4" y="569.8" width="40.7" height="40.7" fill="#fff1cf"/><polygon points="895.4,569.8 936.1,569.8 895.4,610.5" fill="#70b8a6"/><rect x="936.1" y="569.8" width="40.7" height="40.7" fill="#ffe7ae"/><polygon points="936.1,569.8 976.8000000000001,569.8 936.1,610.5" fill="#ffedc5"/><rect x="895.4" y="610.5" width="40.7" height="40.7" fill="#ffd574"/><polygon points="895.4,610.5 936.1,610.5 936.1,651.2" fill="#ffd46f"/><rect x="936.1" y="610.5" width="40.7" height="40.7" fill="#97cbbe"/><polygon points="936.1,610.5 976.8000000000001,610.5 976.8000000000001,651.2" fill="#65b29f"/><rect x="976.8" y="569.8" width="81.4" height="81.4" fill="#aad5ca"/><polygon points="976.8,569.8 1058.2,569.8 976.8,651.1999999999999" fill="#fffdf9"/><rect x="1058.2" y="569.8000000000001" width="81.4" height="81.4" fill="#ffffff"/><rect x="1058.2" y="569.8" width="40.7" height="40.7" fill="#ffe6ac"/><polygon points="1058.2,569.8 1098.9,569.8 1098.9,610.5" fill="#6fb7a5"/><rect x="1098.9" y="569.8" width="40.7" height="40.7" fill="#ffe3a4"/><polygon points="1139.6000000000001,569.8 1139.6000000000001,610.5 1098.9,610.5" fill="#ffedc3"/><rect x="1058.2" y="610.5" width="40.7" height="40.7" fill="#ffd167"/><polygon points="1058.2,610.5 1098.9,651.2 1058.2,651.2" fill="#6ab5a2"/><rect x="1098.9" y="610.5" width="40.7" height="40.7" fill="#ffecc1"/><polygon points="1098.9,610.5 1139.6000000000001,610.5 1139.6000000000001,651.2" fill="#ffeec5"/><rect x="1139.6000000000001" y="569.8000000000001" width="81.4" height="81.4" fill="#ffffff"/><rect x="1139.6" y="569.8" width="40.7" height="40.7" fill="#ffefcb"/><polygon points="1180.3,569.8 1180.3,610.5 1139.6,610.5" fill="#40a088"/><rect x="1180.3" y="569.8" width="40.7" height="40.7" fill="#2c967b"/><polygon points="1180.3,569.8 1221,610.5 1180.3,610.5" fill="#078364"/><rect x="1139.6" y="610.5" width="40.7" height="40.7" fill="#d5eae5"/><polygon points="1139.6,610.5 1180.3,651.2 1139.6,651.2" fill="#ffda85"/><rect x="1180.3" y="610.5" width="40.7" height="40.7" fill="#41a088"/><polygon points="1180.3,610.5 1221,651.2 1180.3,651.2" fill="#4ea790"/><rect x="0" y="651.2" width="81.4" height="81.4" fill="#ffffff"/><rect x="0" y="651.2" width="40.7" height="40.7" fill="#ffd470"/><polygon points="0,651.2 40.7,651.2 0,691.9000000000001" fill="#0d8668"/><rect x="40.7" y="651.2" width="40.7" height="40.7" fill="#098566"/><polygon points="40.7,651.2 81.4,691.9000000000001 40.7,691.9000000000001" fill="#c3e1da"/><rect x="0" y="691.9" width="40.7" height="40.7" fill="#ffd87c"/><polygon points="0,691.9 40.7,732.6 0,732.6" fill="#fffbf3"/><rect x="40.7" y="691.9" width="40.7" height="40.7" fill="#70b8a6"/><polygon points="40.7,691.9 81.4,691.9 40.7,732.6" fill="#81c0b1"/><rect x="81.4" y="651.2" width="81.4" height="81.4" fill="#ffffff"/><rect x="81.4" y="651.2" width="40.7" height="40.7" fill="#ffdf93"/><polygon points="81.4,651.2 122.10000000000001,651.2 81.4,691.9000000000001" fill="#ddeeea"/><rect x="122.1" y="651.2" width="40.7" height="40.7" fill="#b9dcd4"/><polygon points="122.1,651.2 162.8,651.2 162.8,691.9000000000001" fill="#65b29f"/><rect x="81.4" y="691.9" width="40.7" height="40.7" fill="#ffeec5"/><polygon points="81.4,691.9 122.10000000000001,691.9 81.4,732.6" fill="#fffefc"/><rect x="122.1" y="691.9" width="40.7" height="40.7" fill="#359a81"/><polygon points="122.1,691.9 162.8,691.9 122.1,732.6" fill="#0e8769"/><rect x="162.8" y="651.2" width="81.4" height="81.4" fill="#ffffff"/><rect x="162.8" y="651.2" width="40.7" height="40.7" fill="#b8dcd3"/><polygon points="162.8,651.2 203.5,691.9000000000001 162.8,691.9000000000001" fill="#c5e2db"/><rect x="203.5" y="651.2" width="40.7" height="40.7" fill="#d1e8e2"/><polygon points="203.5,651.2 244.2,651.2 244.2,691.9000000000001" fill="#369b82"/><rect x="162.8" y="691.9" width="40.7" height="40.7" fill="#ffd36e"/><polygon points="162.8,691.9 203.5,732.6 162.8,732.6" fill="#ffe9b6"/><rect x="203.5" y="691.9" width="40.7" height="40.7" fill="#ffd87e"/><polygon points="203.5,691.9 244.2,691.9 203.5,732.6" fill="#fffcf5"/><rect x="244.2" y="651.2" width="81.4" height="81.4" fill="#92c9bb"/><polygon points="244.2,651.2 325.6,732.6 244.2,732.6" fill="#ffd062"/><rect x="325.6" y="651.2" width="81.4" height="81.4" fill="#ffcf5f"/><polygon points="325.6,651.2 407,651.2 325.6,732.6" fill="#93c9bc"/><rect x="407" y="651.2" width="81.4" height="81.4" fill="#ffffff"/><rect x="407" y="651.2" width="40.7" height="40.7" fill="#279378"/><polygon points="447.7,651.2 447.7,691.9000000000001 407,691.9000000000001" fill="#98ccbf"/><rect x="447.7" y="651.2" width="40.7" height="40.7" fill="#fff2d3"/><polygon points="447.7,651.2 488.4,651.2 488.4,691.9000000000001" fill="#fff3d7"/><rect x="407" y="691.9" width="40.7" height="40.7" fill="#339a80"/><polygon points="407,691.9 447.7,691.9 407,732.6" fill="#ffe8b1"/><rect x="447.7" y="691.9" width="40.7" height="40.7" fill="#11886a"/><polygon points="488.4,691.9 488.4,732.6 447.7,732.6" fill="#45a28b"/><rect x="488.4" y="651.2" width="81.4" height="81.4" fill="#bfdfd7"/><polygon points="488.4,651.2 569.8,651.2 488.4,732.6" fill="#ffd87e"/><rect x="569.8" y="651.2" width="81.4" height="81.4" fill="#55aa95"/><polygon points="569.8,651.2 651.1999999999999,732.6 569.8,732.6" fill="#ffe29d"/><rect x="651.2" y="651.2" width="81.4" height="81.4" fill="#ffffff"/><rect x="651.2" y="651.2" width="40.7" height="40.7" fill="#fff3d7"/><polygon points="651.2,651.2 691.9000000000001,691.9000000000001 651.2,691.9000000000001" fill="#72b9a7"/><rect x="691.9" y="651.2" width="40.7" height="40.7" fill="#86c3b4"/><polygon points="732.6,651.2 732.6,691.9000000000001 691.9,691.9000000000001" fill="#ffcd5a"/><rect x="651.2" y="691.9" width="40.7" height="40.7" fill="#a7d3c8"/><polygon points="651.2,691.9 691.9000000000001,732.6 651.2,732.6" fill="#71b8a6"/><rect x="691.9" y="691.9" width="40.7" height="40.7" fill="#88c4b5"/><polygon points="691.9,691.9 732.6,691.9 732.6,732.6" fill="#78bcab"/><rect x="732.6" y="651.2" width="81.4" height="81.4" fill="#ffffff"/><rect x="732.6" y="651.2" width="40.7" height="40.7" fill="#048262"/><polygon points="773.3000000000001,651.2 773.3000000000001,691.9000000000001 732.6,691.9000000000001" fill="#ffd36c"/><rect x="773.3" y="651.2" width="40.7" height="40.7" fill="#eff7f5"/><polygon points="773.3,651.2 814,691.9000000000001 773.3,691.9000000000001" fill="#ffcf61"/><rect x="732.6" y="691.9" width="40.7" height="40.7" fill="#c1e0d8"/><polygon points="773.3000000000001,691.9 773.3000000000001,732.6 732.6,732.6" fill="#eff7f5"/><rect x="773.3" y="691.9" width="40.7" height="40.7" fill="#6db6a4"/><polygon points="773.3,691.9 814,691.9 814,732.6" fill="#ffdb87"/><rect x="814" y="651.2" width="81.4" height="81.4" fill="#ffffff"/><rect x="814" y="651.2" width="40.7" height="40.7" fill="#fffcf4"/><polygon points="814,651.2 854.7,691.9000000000001 814,691.9000000000001" fill="#ffcd5b"/><rect x="854.7" y="651.2" width="40.7" height="40.7" fill="#ffdf95"/><polygon points="895.4000000000001,651.2 895.4000000000001,691.9000000000001 854.7,691.9000000000001" fill="#58ac97"/><rect x="814" y="691.9" width="40.7" height="40.7" fill="#ffd981"/><polygon points="814,691.9 854.7,691.9 854.7,732.6" fill="#ffe19b"/><rect x="854.7" y="691.9" width="40.7" height="40.7" fill="#3b9d85"/><polygon points="854.7,691.9 895.4000000000001,732.6 854.7,732.6" fill="#77bbaa"/><rect x="895.4" y="651.2" width="81.4" height="81.4" fill="#ffe3a3"/><polygon points="976.8,651.2 976.8,732.6 895.4,732.6" fill="#c5e2db"/><rect x="976.8000000000001" y="651.2" width="81.4" height="81.4" fill="#ffffff"/><rect x="976.8" y="651.2" width="40.7" height="40.7" fill="#f8fbfb"/><polygon points="1017.5,651.2 1017.5,691.9000000000001 976.8,691.9000000000001" fill="#3a9d84"/><rect x="1017.5" y="651.2" width="40.7" height="40.7" fill="#ffe4a6"/><polygon points="1017.5,651.2 1058.2,651.2 1058.2,691.9000000000001" fill="#8ac5b6"/><rect x="976.8" y="691.9" width="40.7" height="40.7" fill="#44a28a"/><polygon points="1017.5,691.9 1017.5,732.6 976.8,732.6" fill="#fff7e4"/><rect x="1017.5" y="691.9" width="40.7" height="40.7" fill="#ffd268"/><polygon points="1017.5,691.9 1058.2,691.9 1017.5,732.6" fill="#b2d9cf"/><rect x="1058.2" y="651.2" width="81.4" height="81.4" fill="#ffffff"/><rect x="1058.2" y="651.2" width="40.7" height="40.7" fill="#ffdf94"/><polygon points="1058.2,651.2 1098.9,691.9000000000001 1058.2,691.9000000000001" fill="#ffd269"/><rect x="1098.9" y="651.2" width="40.7" height="40.7" fill="#e8f3f0"/><polygon points="1139.6000000000001,651.2 1139.6000000000001,691.9000000000001 1098.9,691.9000000000001" fill="#ffcd59"/><rect x="1058.2" y="691.9" width="40.7" height="40.7" fill="#ffe4a7"/><polygon points="1058.2,691.9 1098.9,732.6 1058.2,732.6" fill="#098566"/><rect x="1098.9" y="691.9" width="40.7" height="40.7" fill="#82c1b1"/><polygon points="1098.9,691.9 1139.6000000000001,691.9 1139.6000000000001,732.6" fill="#f7fbfa"/><rect x="1139.6000000000001" y="651.2" width="81.4" height="81.4" fill="#ffffff"/><rect x="1139.6" y="651.2" width="40.7" height="40.7" fill="#ffe6ab"/><polygon points="1139.6,651.2 1180.3,651.2 1139.6,691.9000000000001" fill="#9acdc0"/><rect x="1180.3" y="651.2" width="40.7" height="40.7" fill="#ffda85"/><polygon points="1180.3,651.2 1221,651.2 1180.3,691.9000000000001" fill="#fff0ce"/><rect x="1139.6" y="691.9" width="40.7" height="40.7" fill="#2b957b"/><polygon points="1139.6,691.9 1180.3,691.9 1180.3,732.6" fill="#6fb7a5"/><rect x="1180.3" y="691.9" width="40.7" height="40.7" fill="#ffcd58"/><polygon points="1180.3,691.9 1221,691.9 1221,732.6" fill="#fff6e0"/><rect x="0" y="732.6" width="81.4" height="81.4" fill="#74baa8"/><polygon points="81.4,732.6 81.4,814 0,814" fill="#ffd269"/><rect x="81.4" y="732.6" width="81.4" height="81.4" fill="#ffffff"/><rect x="81.4" y="732.6" width="40.7" height="40.7" fill="#7ebfaf"/><polygon points="122.10000000000001,732.6 122.10000000000001,773.3000000000001 81.4,773.3000000000001" fill="#eff7f5"/><rect x="122.1" y="732.6" width="40.7" height="40.7" fill="#ffd676"/><polygon points="122.1,732.6 162.8,732.6 162.8,773.3000000000001" fill="#6ab5a2"/><rect x="81.4" y="773.3" width="40.7" height="40.7" fill="#ffce5e"/><polygon points="81.4,773.3 122.10000000000001,773.3 122.10000000000001,814" fill="#52a993"/><rect x="122.1" y="773.3" width="40.7" height="40.7" fill="#62b19d"/><polygon points="122.1,773.3 162.8,773.3 122.1,814" fill="#ffdb87"/><rect x="162.8" y="732.6" width="81.4" height="81.4" fill="#ffcd5a"/><polygon points="162.8,732.6 244.20000000000002,732.6 162.8,814" fill="#62b19d"/><rect x="244.2" y="732.6" width="81.4" height="81.4" fill="#3a9d84"/><polygon points="325.6,732.6 325.6,814 244.2,814" fill="#ffedc2"/><rect x="325.6" y="732.6" width="81.4" height="81.4" fill="#92c9bb"/><polygon points="325.6,732.6 407,732.6 325.6,814" fill="#fff9ec"/><rect x="407" y="732.6" width="81.4" height="81.4" fill="#ffffff"/><rect x="407" y="732.6" width="40.7" height="40.7" fill="#ffecc0"/><polygon points="407,732.6 447.7,732.6 447.7,773.3000000000001" fill="#fff6e2"/><rect x="447.7" y="732.6" width="40.7" height="40.7" fill="#77bbaa"/><polygon points="447.7,732.6 488.4,773.3000000000001 447.7,773.3000000000001" fill="#ffdf95"/><rect x="407" y="773.3" width="40.7" height="40.7" fill="#81c0b0"/><polygon points="407,773.3 447.7,814 407,814" fill="#32997f"/><rect x="447.7" y="773.3" width="40.7" height="40.7" fill="#f0f7f6"/><polygon points="447.7,773.3 488.4,773.3 488.4,814" fill="#f7fbfa"/><rect x="488.4" y="732.6" width="81.4" height="81.4" fill="#44a28a"/><polygon points="569.8,732.6 569.8,814 488.4,814" fill="#dbede9"/><rect x="569.8000000000001" y="732.6" width="81.4" height="81.4" fill="#ffffff"/><rect x="569.8" y="732.6" width="40.7" height="40.7" fill="#fffdf8"/><polygon points="569.8,732.6 610.5,732.6 569.8,773.3000000000001" fill="#389c83"/><rect x="610.5" y="732.6" width="40.7" height="40.7" fill="#ffd165"/><polygon points="610.5,732.6 651.2,732.6 651.2,773.3000000000001" fill="#239276"/><rect x="569.8" y="773.3" width="40.7" height="40.7" fill="#279479"/><polygon points="610.5,773.3 610.5,814 569.8,814" fill="#ffe6ad"/><rect x="610.5" y="773.3" width="40.7" height="40.7" fill="#1a8d70"/><polygon points="610.5,773.3 651.2,773.3 610.5,814" fill="#67b3a0"/><rect x="651.2" y="732.6" width="81.4" height="81.4" fill="#ffffff"/><rect x="651.2" y="732.6" width="40.7" height="40.7" fill="#cbe5df"/><polygon points="651.2,732.6 691.9000000000001,732.6 691.9000000000001,773.3000000000001" fill="#ffe8b3"/><rect x="691.9" y="732.6" width="40.7" height="40.7" fill="#fff5df"/><polygon points="691.9,732.6 732.6,773.3000000000001 691.9,773.3000000000001" fill="#ffeec7"/><rect x="651.2" y="773.3" width="40.7" height="40.7" fill="#ffdc8c"/><polygon points="691.9000000000001,773.3 691.9000000000001,814 651.2,814" fill="#c4e2da"/><rect x="691.9" y="773.3" width="40.7" height="40.7" fill="#ffeec5"/><polygon points="691.9,773.3 732.6,773.3 732.6,814" fill="#ffdf94"/><rect x="732.6" y="732.6" width="81.4" height="81.4" fill="#fff2d4"/><polygon points="732.6,732.6 814,732.6 814,814" fill="#ffebbd"/><rect x="814" y="732.6" width="81.4" height="81.4" fill="#ffffff"/><rect x="814" y="732.6" width="40.7" height="40.7" fill="#fdfefe"/><polygon points="814,732.6 854.7,773.3000000000001 814,773.3000000000001" fill="#fff9ec"/><rect x="854.7" y="732.6" width="40.7" height="40.7" fill="#ffeec7"/><polygon points="854.7,732.6 895.4000000000001,773.3000000000001 854.7,773.3000000000001" fill="#5cae99"/><rect x="814" y="773.3" width="40.7" height="40.7" fill="#078464"/><polygon points="814,773.3 854.7,773.3 854.7,814" fill="#ffd87e"/><rect x="854.7" y="773.3" width="40.7" height="40.7" fill="#94cabc"/><polygon points="895.4000000000001,773.3 895.4000000000001,814 854.7,814" fill="#088465"/><rect x="895.4000000000001" y="732.6" width="81.4" height="81.4" fill="#ffffff"/><rect x="895.4" y="732.6" width="40.7" height="40.7" fill="#ffd678"/><polygon points="895.4,732.6 936.1,732.6 895.4,773.3000000000001" fill="#ffedc3"/><rect x="936.1" y="732.6" width="40.7" height="40.7" fill="#bfdfd7"/><polygon points="976.8000000000001,732.6 976.8000000000001,773.3000000000001 936.1,773.3000000000001" fill="#fffefb"/><rect x="895.4" y="773.3" width="40.7" height="40.7" fill="#ffdd8e"/><polygon points="936.1,773.3 936.1,814 895.4,814" fill="#ffecbf"/><rect x="936.1" y="773.3" width="40.7" height="40.7" fill="#71b8a6"/><polygon points="936.1,773.3 976.8000000000001,814 936.1,814" fill="#fff4da"/><rect x="976.8000000000001" y="732.6" width="81.4" height="81.4" fill="#ffffff"/><rect x="976.8" y="732.6" width="40.7" height="40.7" fill="#359b81"/><polygon points="1017.5,732.6 1017.5,773.3000000000001 976.8,773.3000000000001" fill="#e7f3f0"/><rect x="1017.5" y="732.6" width="40.7" height="40.7" fill="#ffcb52"/><polygon points="1017.5,732.6 1058.2,732.6 1017.5,773.3000000000001" fill="#ffdb89"/><rect x="976.8" y="773.3" width="40.7" height="40.7" fill="#fff8e6"/><polygon points="976.8,773.3 1017.5,773.3 976.8,814" fill="#91c8ba"/><rect x="1017.5" y="773.3" width="40.7" height="40.7" fill="#aad5ca"/><polygon points="1058.2,773.3 1058.2,814 1017.5,814" fill="#ffe7ae"/><rect x="1058.2" y="732.6" width="81.4" height="81.4" fill="#188c6f"/><polygon points="1058.2,732.6 1139.6000000000001,814 1058.2,814" fill="#fffdf8"/><rect x="1139.6" y="732.6" width="81.4" height="81.4" fill="#9ccdc1"/><polygon points="1139.6,732.6 1221,732.6 1139.6,814" fill="#7bbdad"/></g></svg>